<?xml version="1.0" encoding="UTF-8"?><svg id="Layer_1" xmlns="http://www.w3.org/2000/svg" width="237" height="214" viewBox="0 0 237 214"><defs><style>.cls-1{fill:#e6e6e6;}.cls-2{fill:#f4f4f4;}.cls-3{fill:#7e86ff;}.cls-4{fill:#fff;}.cls-5{fill:#8c6239;}.cls-6{fill:#333;}</style></defs><rect class="cls-2" x="197.56" y=".09" width="12" height="33" rx="4.5" ry="4.5"/><rect class="cls-2" x="159.56" y=".09" width="12" height="33" rx="4.5" ry="4.5"/><rect class="cls-2" x="112.56" y=".09" width="12" height="33" rx="4.5" ry="4.5"/><rect class="cls-2" x="67.56" y=".09" width="12" height="33" rx="4.5" ry="4.5"/><rect class="cls-2" x="27.56" y=".09" width="12" height="33" rx="4.5" ry="4.5"/><path class="cls-3" d="M235.95,17.95v32.71H1.11V17.95c0-5.45,4.21-9.86,9.41-9.86h216.01c5.2,0,9.41,4.42,9.41,9.86Z"/><path class="cls-2" d="M235.2,17.95v32.71l.75-.75H4.65c-1.03,0-2.13-.11-3.15,0-.13.01-.26,0-.39,0l.75.75v-28.71c0-1.31-.02-2.62,0-3.93.05-4.04,2.55-7.85,6.57-8.91,1.29-.34,2.62-.27,3.94-.27h152.38c10.52,0,21.04,0,31.57,0h28.19c1,0,2.04-.06,3.03.06,4.53.55,7.58,4.66,7.66,9.06.02.96,1.52.97,1.5,0-.1-5.81-4.52-10.59-10.42-10.61-1.23,0-2.46,0-3.69,0H14.25c-1.17,0-2.35,0-3.52,0C4.85,7.37.44,12.2.36,17.98c-.13,9.83,0,19.67,0,29.5v3.18c0,.41.34.75.75.75h225.31c3.04,0,6.09.06,9.13,0,.13,0,.26,0,.39,0,.41,0,.75-.34.75-.75V17.95c0-.97-1.5-.97-1.5,0Z"/><path class="cls-4" d="M235.95,50.66v152.56c0,5.45-4.21,9.86-9.41,9.86H10.52c-5.2,0-9.41-4.42-9.41-9.86V50.66h234.83Z"/><path class="cls-2" d="M235.2,50.66v11.91c0,9.82,0,19.65,0,29.47s0,25.27,0,37.9v71.76c0,3.36-.64,6.61-3.48,8.84-3.24,2.55-8.39,1.8-12.28,1.8-7.26,0-14.52,0-21.78,0-10.66,0-21.33,0-31.99,0-12.59,0-25.18,0-37.78,0h-38.75c-11.76,0-23.53,0-35.29,0-9.11,0-18.23,0-27.34,0h-14.66c-2.67,0-5.19-.45-7.22-2.44-2.37-2.32-2.76-5.28-2.76-8.37V50.66l-.75.75h225.31c3.04,0,6.09.06,9.13,0,.13,0,.26,0,.39,0,.97,0,.97-1.5,0-1.5H10.64c-3.04,0-6.09-.06-9.13,0-.13,0-.26,0-.39,0-.41,0-.75.34-.75.75v12.05c0,9.96,0,19.93,0,29.89s0,25.56,0,38.33,0,24.85,0,37.28v33.8c0,3.78,1.02,7.37,4.17,9.78,3.54,2.71,8.5,2.05,12.71,2.05,7.24,0,14.48,0,21.72,0,10.73,0,21.47,0,32.2,0,12.63,0,25.25,0,37.88,0h39c11.86,0,23.72,0,35.58,0h41.78c2.9,0,5.63-.62,7.86-2.66,2.7-2.48,3.43-5.84,3.43-9.32V50.66c0-.97-1.5-.97-1.5,0Z"/><rect class="cls-1" x="122.72" y="170.59" width="24" height="24" rx="5.17" ry="5.17"/><rect class="cls-1" x="123.06" y="139.59" width="24" height="24" rx="5.17" ry="5.17"/><rect class="cls-1" x="123.06" y="108.59" width="24" height="24" rx="5.17" ry="5.17"/><rect class="cls-1" x="123.06" y="77.59" width="24" height="24" rx="5.17" ry="5.17"/><rect class="cls-1" x="154.72" y="170.59" width="24" height="24" rx="5.17" ry="5.17"/><rect class="cls-1" x="155.06" y="139.59" width="24" height="24" rx="5.17" ry="5.17"/><rect class="cls-1" x="155.06" y="108.59" width="24" height="24" rx="5.17" ry="5.17"/><rect class="cls-1" x="155.06" y="77.59" width="24" height="24" rx="5.17" ry="5.17"/><rect class="cls-1" x="186.56" y="140.09" width="24" height="24" rx="5.17" ry="5.17"/><rect class="cls-1" x="186.56" y="109.09" width="24" height="24" rx="5.17" ry="5.17"/><rect class="cls-1" x="186.56" y="78.09" width="24" height="24" rx="5.17" ry="5.17"/><rect class="cls-1" x="89.72" y="170.59" width="24" height="24" rx="5.17" ry="5.17"/><rect class="cls-1" x="90.06" y="139.59" width="24" height="24" rx="5.17" ry="5.17"/><rect class="cls-1" x="90.06" y="108.59" width="24" height="24" rx="5.17" ry="5.17"/><rect class="cls-1" x="90.06" y="77.59" width="24" height="24" rx="5.17" ry="5.17"/><rect class="cls-1" x="56.72" y="170.59" width="24" height="24" rx="5.17" ry="5.17"/><rect class="cls-1" x="57.06" y="139.59" width="24" height="24" rx="5.17" ry="5.17"/><rect class="cls-1" x="57.06" y="108.59" width="24" height="24" rx="5.17" ry="5.17"/><rect class="cls-1" x="25.72" y="170.59" width="24" height="24" rx="5.17" ry="5.17"/><rect class="cls-1" x="26.06" y="139.59" width="24" height="24" rx="5.17" ry="5.17"/><rect class="cls-1" x="26.06" y="108.59" width="24" height="24" rx="5.17" ry="5.17"/><rect class="cls-1" x="57.06" y="77.59" width="24" height="24" rx="5.17" ry="5.17"/><circle class="cls-6" cx="118.53" cy="27.84" r="7.25"/><circle class="cls-6" cx="165.53" cy="27.84" r="7.25"/><circle class="cls-6" cx="203.53" cy="27.84" r="7.25"/><circle class="cls-6" cx="73.53" cy="27.84" r="7.25"/><circle class="cls-6" cx="33.61" cy="27.84" r="7.25"/><rect class="cls-5" x="28.47" y="1.09" width="10.29" height="32" rx="4.5" ry="4.5"/><rect class="cls-5" x="68.47" y="1.09" width="10.29" height="32" rx="4.5" ry="4.5"/><rect class="cls-5" x="113.47" y="1.09" width="10.29" height="32" rx="4.5" ry="4.5"/><rect class="cls-5" x="160.47" y="1.09" width="10.29" height="32" rx="4.5" ry="4.5"/><rect class="cls-5" x="198.47" y="1.09" width="10.29" height="32" rx="4.5" ry="4.5"/></svg>