<?xml version="1.0" encoding="UTF-8"?><svg id="Layer_1" xmlns="http://www.w3.org/2000/svg" width="119" height="101" viewBox="0 0 119 101"><defs><style>.cls-1{fill:#f4f4f4;}.cls-2{fill:#7e86ff;}.cls-3{fill:#fff;}</style></defs><path class="cls-3" d="M89.78,17.08l-.03.03s-.03-.01-.05-.01c.03-.01.05-.02.08-.02Z"/><path class="cls-1" d="M89.25,16.55l-.03.03.53-.22h0c.07,0,.13.02.2.03,0,0-.02,0-.02,0,0,0,0,0-.01,0-.03,0-.07-.01-.1-.01-.03,0-.07,0-.1-.01,0,0,0,0,0,0l.2,1.47s.04-.02.06-.02l-.2.03s.01,0,.02,0c.1,0,.2-.02.29-.06.09-.03.17-.08.24-.16.07-.07.12-.15.16-.24.05-.09.07-.19.06-.29l-.03-.2c-.04-.13-.1-.24-.19-.33l-.15-.12c-.12-.07-.24-.1-.38-.1,0,0,0,0-.01,0,0,0,0,0,0,0l-.2.03s-.01,0-.02,0c-.01,0-.03,0-.04.01-.1.02-.18.07-.26.13-.08.05-.15.12-.19.21l-.08.18c-.03.1-.04.2-.01.3,0,.07.02.13.05.19.03.09.08.17.16.24l.15.12c.12.07.24.1.38.1,0,0,0,0,.01,0l-.2-.03s.02,0,.04,0c.14.03.27.04.4,0l.18-.08c.06-.03.11-.07.15-.12,0,0,0,0,0,0l.03-.03c.07-.07.12-.15.16-.24.05-.09.07-.19.06-.29,0-.1-.02-.2-.06-.29-.03-.09-.08-.17-.16-.24l-.15-.12c-.12-.07-.24-.1-.38-.1l-.2.03c-.13.04-.24.1-.33.19Z"/><path class="cls-3" d="M106.79,16.91c-1.41-4.77-8.16-8.51-16.63-9.18-3.02-3.96-9.96-6.73-18.04-6.73s-14.92,2.73-17.98,6.65c-.48-.02-.97-.03-1.46-.03-9.47,0-17.38,3.81-19.23,8.88-7.7,1.51-13.24,5.67-13.24,10.56,0,6.17,8.8,11.17,19.65,11.17,1.5,0,2.95-.09,4.35-.28,1.39.19,2.85.28,4.34.28,2.95,0,5.75-.37,8.27-1.04,2.52.67,5.32,1.04,8.27,1.04,2.79,0,5.45-.33,7.86-.93,2.41.6,5.07.93,7.86.93,3.2,0,6.22-.44,8.89-1.21,2.67.77,5.69,1.21,8.9,1.21,10.85,0,19.65-5,19.65-11.17,0-4.51-4.7-8.39-11.46-10.15ZM89.75,17.11s-.03-.01-.05-.01c.03-.01.05-.02.08-.02l-.03.03Z"/><path class="cls-1" d="M107.51,16.71c-1.54-4.88-6.87-7.5-11.46-8.74-1.51-.41-3.06-.69-4.61-.87-.66-.08-.85-.06-1.29-.55-.47-.52-.98-.99-1.52-1.42-2.11-1.68-4.62-2.82-7.19-3.58-6.28-1.87-13.46-1.8-19.67.33-2.45.84-4.84,2.04-6.78,3.78-.34.3-.81,1.07-1.2,1.24-.19.08-.89-.03-1.1-.03-.43,0-.87,0-1.3.02-1.59.06-3.19.23-4.76.51-5.3.94-11.8,3.45-13.9,8.9l.52-.52c-4.44.9-9.32,2.74-12.11,6.52-2.17,2.92-2.16,6.63,0,9.54,2.53,3.39,6.78,5.24,10.77,6.21,2.59.63,5.28.92,7.94.93,1.45,0,2.91-.3,4.35-.28s2.89.28,4.34.28,3.02-.1,4.51-.3c1.28-.17,2.89-.81,4.16-.62,2.88.45,5.61.96,8.56.91,1.34-.03,2.68-.13,4.01-.31.71-.1,1.42-.21,2.13-.36.95-.19,1.51-.1,2.47.08,2.89.55,5.85.72,8.78.52,1.35-.09,2.69-.26,4.02-.51.64-.12,1.26-.3,1.9-.42.89-.16,1.6.11,2.48.29,2.87.6,5.82.82,8.75.68,4.76-.23,9.79-1.37,13.77-4.09,3.25-2.22,5.87-5.92,4.56-10.01-1.57-4.9-7.09-7.43-11.66-8.65-.93-.25-1.33,1.2-.4,1.45,5.21,1.4,14.03,6.17,9.88,12.8-1.64,2.62-4.63,4.28-7.46,5.31-3.77,1.38-7.84,1.87-11.84,1.71-2.25-.09-4.49-.41-6.66-.99-.93-.25-1.51-.01-2.44.21-1.16.27-2.33.47-3.51.61-2.3.26-4.63.27-6.93.06-1.87-.17-3.85-.97-5.68-.57-4.33.95-8.95.98-13.29.08-.85-.17-1.57-.48-2.43-.28-1.19.28-2.38.52-3.59.67-2.08.25-4.19.31-6.28.17-1.01-.06-1.97-.22-2.98-.11-1.16.12-2.33.18-3.5.18-2.08,0-4.16-.18-6.2-.58-3.35-.66-6.81-1.85-9.47-4.05-2.01-1.66-3.62-4.06-3.14-6.77.54-3.06,3.28-5.22,5.88-6.58,1.73-.91,3.59-1.55,5.49-2,.71-.17,1.38-.13,1.76-.79.33-.58.55-1.19.95-1.74,1.86-2.59,5-4.16,7.95-5.13,1.87-.61,3.81-1.03,5.77-1.25.98-.11,1.97-.18,2.96-.2.8-.02,2.09.29,2.78-.14.48-.3.91-1.02,1.34-1.42.61-.56,1.27-1.04,1.96-1.48,1.5-.94,3.13-1.65,4.81-2.19,7.34-2.34,16.56-2.05,23.28,1.98,1.35.81,2.38,1.8,3.46,2.92.56.58,1.18.47,1.98.56,1.09.13,2.18.32,3.25.57,3.31.77,6.75,2.12,9.21,4.54.97.96,1.75,2.07,2.16,3.38.29.92,1.74.53,1.45-.4Z"/><path class="cls-1" d="M89.75,16.36h0c.07,0,.13.02.2.03,0,0-.02,0-.02,0,0,0,0,0-.01,0-.03,0-.07-.01-.1-.01-.03,0-.07,0-.1-.01,0,0,0,0,0,0l.2,1.47s.04-.02.06-.02l-.2.03s.01,0,.02,0l-.53-1.28-.03.03c-.07.07-.12.15-.16.24-.05.09-.07.19-.06.29,0,.1.02.2.06.29.03.09.08.17.16.24l.15.12c.12.07.24.1.38.1l.2-.03c.13-.04.24-.1.33-.19l.03-.03.12-.15.08-.18.03-.2c0-.1-.02-.2-.06-.29-.02-.06-.05-.12-.1-.17-.03-.06-.08-.1-.13-.13-.05-.05-.1-.08-.17-.1-.09-.05-.19-.07-.29-.06,0,0,0,0-.01,0,0,0,0,0,0,0l-.2.03s-.01,0-.02,0c-.01,0-.03,0-.04.01-.1.02-.18.07-.26.13-.08.05-.15.12-.19.21l-.08.18c-.03.1-.04.2-.01.3,0,.07.02.13.05.19.03.09.08.17.16.24l.15.12c.12.07.24.1.38.1,0,0,0,0,.01,0l-.2-.03s.02,0,.02,0c.07.02.15.03.21.03.1,0,.2-.02.29-.06.09-.03.17-.08.24-.16.07-.07.12-.15.16-.24.05-.09.07-.19.06-.29l-.03-.2c-.04-.13-.1-.24-.19-.33l-.15-.12c-.12-.07-.24-.1-.38-.1Z"/><path class="cls-3" d="M89.78,17.08l-.03.03s-.03-.01-.05-.01c.03-.01.05-.02.08-.02Z"/><path class="cls-1" d="M89.25,16.55l-.03.03.53-.22h0c.07,0,.13.02.2.03,0,0-.02,0-.02,0,0,0,0,0-.01,0-.03,0-.07-.01-.1-.01-.03,0-.07,0-.1-.01,0,0,0,0,0,0l.2,1.47s.04-.02.06-.02l-.2.03s.01,0,.02,0c.1,0,.2-.02.29-.06.09-.03.17-.08.24-.16.07-.07.12-.15.16-.24.05-.09.07-.19.06-.29l-.03-.2c-.04-.13-.1-.24-.19-.33l-.15-.12c-.12-.07-.24-.1-.38-.1,0,0,0,0-.01,0,0,0,0,0,0,0l-.2.03s-.01,0-.02,0c-.01,0-.03,0-.04.01-.1.02-.18.07-.26.13-.08.05-.15.12-.19.21l-.08.18c-.03.1-.04.2-.01.3,0,.07.02.13.05.19.03.09.08.17.16.24l.15.12c.12.07.24.1.38.1,0,0,0,0,.01,0l-.2-.03s.02,0,.04,0c.14.03.27.04.4,0l.18-.08c.06-.03.11-.07.15-.12,0,0,0,0,0,0l.03-.03c.07-.07.12-.15.16-.24.05-.09.07-.19.06-.29,0-.1-.02-.2-.06-.29-.03-.09-.08-.17-.16-.24l-.15-.12c-.12-.07-.24-.1-.38-.1l-.2.03c-.13.04-.24.1-.33.19Z"/><path class="cls-3" d="M89.78,17.08l-.03.03s-.03-.01-.05-.01c.03-.01.05-.02.08-.02Z"/><path class="cls-1" d="M89.25,16.55l-.03.03.53-.22h0c.07,0,.13.02.2.03,0,0-.02,0-.02,0,0,0,0,0-.01,0-.03,0-.07-.01-.1-.01-.03,0-.07,0-.1-.01,0,0,0,0,0,0l.2,1.47s.04-.02.06-.02l-.2.03s.01,0,.02,0c.1,0,.2-.02.29-.06.09-.03.17-.08.24-.16.07-.07.12-.15.16-.24.05-.09.07-.19.06-.29l-.03-.2c-.04-.13-.1-.24-.19-.33l-.15-.12c-.12-.07-.24-.1-.38-.1,0,0,0,0-.01,0,0,0,0,0,0,0l-.2.03s-.01,0-.02,0c-.01,0-.03,0-.04.01-.1.02-.18.07-.26.13-.08.05-.15.12-.19.21l-.08.18c-.03.1-.04.2-.01.3,0,.07.02.13.05.19.03.09.08.17.16.24l.15.12c.12.07.24.1.38.1,0,0,0,0,.01,0l-.2-.03s.02,0,.04,0c.14.03.27.04.4,0l.18-.08c.06-.03.11-.07.15-.12,0,0,0,0,0,0l.03-.03c.07-.07.12-.15.16-.24.05-.09.07-.19.06-.29,0-.1-.02-.2-.06-.29-.03-.09-.08-.17-.16-.24l-.15-.12c-.12-.07-.24-.1-.38-.1l-.2.03c-.13.04-.24.1-.33.19Z"/><path d="M62.43,23.05l2.09.66c-.32,1.17-.86,2.04-1.6,2.6-.75.57-1.7.85-2.84.85-1.42,0-2.59-.49-3.5-1.46s-1.37-2.3-1.37-3.98c0-1.78.46-3.16,1.38-4.15.92-.99,2.13-1.48,3.63-1.48,1.31,0,2.37.39,3.19,1.16.49.46.85,1.11,1.09,1.97l-2.14.51c-.13-.55-.39-.99-.79-1.31s-.89-.48-1.46-.48c-.79,0-1.44.29-1.93.85s-.74,1.49-.74,2.77c0,1.35.24,2.32.73,2.89s1.12.86,1.9.86c.57,0,1.07-.18,1.48-.55.41-.36.71-.94.89-1.72Z"/><path d="M65.94,21.7c0-1.09.16-2,.49-2.74.24-.54.58-1.03,1-1.47.42-.43.88-.75,1.38-.96.67-.28,1.44-.42,2.31-.42,1.58,0,2.84.49,3.78,1.47.95.98,1.42,2.34,1.42,4.08s-.47,3.08-1.41,4.05c-.94.98-2.2,1.46-3.77,1.46s-2.86-.49-3.79-1.46c-.94-.97-1.41-2.31-1.41-4.01ZM68.17,21.63c0,1.21.28,2.13.84,2.76.56.62,1.27.94,2.13.94s1.57-.31,2.12-.93c.55-.62.83-1.55.83-2.79s-.27-2.14-.81-2.74c-.54-.6-1.25-.91-2.14-.91s-1.61.31-2.15.92c-.54.61-.82,1.53-.82,2.76Z"/><path d="M84.48,25.08v1.91h-7.19c.08-.72.31-1.4.7-2.05.39-.65,1.16-1.5,2.31-2.57.92-.86,1.49-1.45,1.7-1.75.28-.42.42-.84.42-1.26,0-.46-.12-.81-.37-1.05-.25-.25-.58-.37-1.02-.37s-.77.13-1.02.39-.4.69-.44,1.28l-2.04-.2c.12-1.13.5-1.94,1.15-2.43.64-.49,1.45-.74,2.41-.74,1.06,0,1.88.28,2.49.85s.91,1.28.91,2.12c0,.48-.09.94-.26,1.38-.17.44-.45.89-.82,1.37-.25.32-.7.77-1.34,1.37-.65.59-1.06.99-1.23,1.18-.17.2-.31.38-.42.57h4.07Z"/><path class="cls-2" d="M70.15,100H6.83c-3.58,0-6.39-2.13-6.09-4.6l6.71-55.99c.26-2.2,2.91-3.9,6.09-3.9h47.38c3.11,0,5.72,1.62,6.07,3.77l9.23,55.99c.42,2.52-2.42,4.74-6.07,4.74Z"/><path class="cls-1" d="M70.15,99.25H8.18c-2.8,0-7.06-.53-6.65-4.2.89-7.99,1.91-15.97,2.87-23.95l3.46-28.89c.11-.88.17-1.77.32-2.64.4-2.45,3.27-3.29,5.42-3.32,2.69-.04,5.38,0,8.06,0,10.64,0,21.27,0,31.91,0,2.45,0,4.9-.05,7.35,0s4.97.99,5.41,3.53c.17.96.32,1.92.47,2.88,1.6,9.74,3.21,19.48,4.81,29.22,1.28,7.76,2.8,15.51,3.84,23.3.38,2.87-2.99,4.01-5.31,4.06-.96.02-.97,1.52,0,1.5,3.19-.07,7.31-1.88,6.8-5.69-.09-.64-.21-1.28-.32-1.93-.65-3.93-1.3-7.86-1.94-11.79-1.81-11-3.63-22.01-5.44-33.01-.49-2.97-.96-5.94-1.47-8.9-.67-3.9-4.78-4.68-8.14-4.68H16.33c-3.59,0-8.91,0-9.61,4.55-1.1,7.15-1.73,14.4-2.59,21.58-1.23,10.3-2.47,20.6-3.7,30.9-.13,1.08-.27,2.15-.39,3.23-.21,1.92.68,3.5,2.31,4.53,2.46,1.56,5.67,1.21,8.46,1.21h59.34c.97,0,.97-1.5,0-1.5Z"/><path d="M19.56,64.59l1.79-.22c.06.46.21.8.46,1.05s.55.36.91.36c.38,0,.7-.14.96-.43.26-.29.39-.68.39-1.17,0-.46-.12-.83-.38-1.11s-.56-.41-.92-.41c-.24,0-.52.05-.85.14l.2-1.51c.5.01.88-.1,1.15-.33.26-.23.39-.54.39-.92,0-.32-.1-.58-.29-.78s-.45-.29-.77-.29-.59.11-.81.33c-.22.22-.36.54-.41.96l-1.7-.29c.12-.58.3-1.05.54-1.4.24-.35.57-.62,1-.82.43-.2.91-.3,1.44-.3.91,0,1.64.29,2.19.87.45.47.68,1.01.68,1.61,0,.85-.46,1.52-1.39,2.03.55.12,1,.38,1.33.8.33.41.5.91.5,1.49,0,.85-.31,1.57-.93,2.17-.62.6-1.39.9-2.31.9-.87,0-1.6-.25-2.17-.75-.58-.5-.91-1.16-1-1.97Z"/><path d="M27.47,65.3h1.85v1.32c0,.54-.05.96-.14,1.27s-.27.59-.52.83-.58.44-.98.58l-.36-.76c.37-.12.64-.29.8-.51s.24-.51.25-.88h-.89v-1.85Z"/><path d="M37.14,59.86l-1.79.2c-.04-.37-.16-.64-.34-.82-.18-.18-.42-.26-.72-.26-.39,0-.72.18-.99.53-.27.35-.44,1.08-.51,2.19.46-.54,1.03-.82,1.72-.82.77,0,1.43.29,1.98.88.55.59.83,1.35.83,2.28,0,.99-.29,1.78-.87,2.38-.58.6-1.32.9-2.23.9-.97,0-1.77-.38-2.4-1.14-.63-.76-.94-2-.94-3.72s.33-3.04.98-3.82c.65-.78,1.5-1.17,2.55-1.17.73,0,1.34.21,1.82.62.48.41.79,1.01.92,1.79ZM32.94,63.9c0,.6.14,1.07.41,1.39s.59.49.95.49.63-.13.86-.4.34-.71.34-1.32-.12-1.09-.37-1.38-.55-.44-.92-.44-.66.14-.9.42c-.25.28-.37.69-.37,1.23Z"/><path d="M44.62,65.43v1.72h-6.48c.07-.65.28-1.26.63-1.85.35-.58,1.04-1.35,2.08-2.31.83-.78,1.34-1.3,1.53-1.58.25-.38.38-.76.38-1.13,0-.41-.11-.73-.33-.95s-.53-.33-.92-.33-.69.12-.92.35c-.23.23-.36.62-.4,1.16l-1.84-.18c.11-1.02.45-1.75,1.03-2.19.58-.44,1.3-.67,2.17-.67.95,0,1.7.26,2.24.77s.82,1.15.82,1.92c0,.43-.08.85-.23,1.24-.16.39-.4.8-.74,1.23-.22.29-.63.7-1.21,1.23s-.95.89-1.11,1.07c-.16.18-.28.35-.38.51h3.67Z"/><path d="M45.89,64.67l1.84-.19c.05.42.21.75.47.99.26.24.56.37.9.37.39,0,.71-.16.98-.47s.4-.79.4-1.42c0-.59-.13-1.04-.4-1.33-.27-.3-.61-.44-1.04-.44-.53,0-1.01.23-1.43.7l-1.5-.22.95-5.02h4.89v1.73h-3.49l-.29,1.64c.41-.21.83-.31,1.26-.31.82,0,1.52.3,2.09.89.57.6.86,1.37.86,2.32,0,.79-.23,1.5-.69,2.13-.63.85-1.5,1.28-2.61,1.28-.89,0-1.62-.24-2.18-.72-.56-.48-.9-1.12-1.01-1.93Z"/><path d="M27.24,73.94v1.47h-1.26v2.82c0,.57.01.9.04,1,.02.09.08.17.17.23.08.06.19.09.31.09.17,0,.42-.06.74-.18l.16,1.44c-.43.18-.92.28-1.46.28-.33,0-.63-.06-.9-.17-.27-.11-.46-.26-.59-.43s-.21-.42-.26-.72c-.04-.21-.06-.65-.06-1.3v-3.05h-.85v-1.47h.85v-1.39l1.86-1.08v2.47h1.26Z"/><path d="M28.09,77.34c0-.61.15-1.21.45-1.78.3-.57.73-1.01,1.29-1.32.55-.3,1.17-.45,1.86-.45,1.06,0,1.92.34,2.6,1.03s1.01,1.55,1.01,2.6-.34,1.93-1.02,2.63c-.68.7-1.54,1.04-2.58,1.04-.64,0-1.25-.15-1.83-.43-.58-.29-1.02-.71-1.33-1.27s-.45-1.24-.45-2.04ZM29.99,77.43c0,.69.16,1.22.49,1.59.33.37.74.55,1.22.55s.89-.18,1.21-.55c.33-.37.49-.9.49-1.61s-.16-1.21-.49-1.58c-.33-.37-.73-.55-1.21-.55s-.89.18-1.22.55c-.33.37-.49.9-.49,1.59Z"/><path d="M43.11,80.93h-1.85v-3.57c0-.75-.04-1.24-.12-1.46-.08-.22-.21-.39-.39-.52s-.39-.18-.64-.18c-.32,0-.61.09-.86.26s-.43.41-.52.7c-.09.29-.14.83-.14,1.61v3.17h-1.85v-6.99h1.72v1.03c.61-.79,1.38-1.18,2.3-1.18.41,0,.78.07,1.12.22.34.15.59.33.77.56.17.23.29.49.36.78.07.29.1.71.1,1.24v4.34Z"/><path d="M44.34,78.94l1.86-.28c.08.36.24.63.48.82s.58.28,1.01.28c.48,0,.84-.09,1.08-.26.16-.12.24-.29.24-.49,0-.14-.04-.26-.13-.35-.09-.09-.3-.17-.62-.24-1.49-.33-2.44-.63-2.84-.9-.55-.38-.83-.9-.83-1.57,0-.61.24-1.11.72-1.53.48-.41,1.22-.62,2.22-.62s1.67.16,2.13.47.79.77.96,1.38l-1.74.32c-.07-.27-.22-.48-.42-.62-.21-.14-.51-.22-.89-.22-.49,0-.84.07-1.05.2-.14.1-.21.22-.21.38,0,.13.06.24.18.33.17.12.74.3,1.73.52.98.22,1.67.5,2.06.82.39.33.58.79.58,1.38,0,.64-.27,1.19-.8,1.65-.54.46-1.33.69-2.38.69-.95,0-1.71-.19-2.26-.58-.55-.39-.92-.91-1.09-1.57Z"/><path class="cls-2" d="M52.6,32.91c-.3-.51-.62-1-.93-1.48-.06-.1-.13-.19-.19-.29-4.74-7.04-10.67-11.11-16.76-10.6-6.04.51-11.16,5.43-14.65,13.04-.05.1-.09.21-.14.31l.19.29c.05-.1.09-.21.14-.31,3.45-7.53,8.52-12.4,14.49-12.9,6.03-.51,11.9,3.52,16.59,10.49.06.09.13.19.19.29.32.48.63.97.93,1.48.06.1.12.2.18.3l.14-.32c-.06-.1-.12-.2-.18-.3Z"/><path class="cls-1" d="M55.2,31.4c-3.6-5.94-8.98-12.07-16.11-13.52-6.51-1.33-12.66,1.58-16.82,6.57-1.27,1.52-2.4,3.14-3.37,4.87-1.07,1.89-2.7,4.31-1.36,6.4,1.11,1.73,4.19,2.16,5.18,0,1.46-3.18,3.18-6.17,5.72-8.56,1.01-.95,1.98-1.65,3.4-2.34.78-.38,2.54-.82,3.41-.86,1.56-.07,2.34.08,3.98.61,1.1.35,2.69,1.28,3.86,2.17,2.84,2.16,5.12,5.22,6.98,8.31,1.04,1.74,4.26,2.17,5.18,0,.56-1.32.73-2.35-.05-3.65-1.98-3.31-7.17-.29-5.18,3.03l.18.3v-3.03l-.14.32h5.18c-3.44-5.74-8.28-11.36-14.89-13.39-6.02-1.85-12.17.32-16.53,4.65-2.7,2.67-4.71,5.97-6.29,9.41h5.18l-.19-.29v3.03c1.46-3.17,3.17-6.15,5.66-8.54,1.06-1.02,1.91-1.66,3.35-2.38.56-.28.75-.36,1.58-.6.39-.11.79-.21,1.19-.28.36-.06.4-.07.11-.03.16-.02.31-.03.47-.04.63-.03,1.67-.03,2.04.02s1.4.29,2,.48c1.25.4,2.65,1.17,3.93,2.08,2.94,2.1,5.28,5.21,7.16,8.31,2,3.3,7.19.29,5.18-3.03Z"/><path class="cls-2" d="M54.6,36.91c-.3-.51-.62-1-.93-1.48-.06-.1-.13-.19-.19-.29-4.74-7.04-10.67-11.11-16.76-10.6-6.04.51-11.16,5.43-14.65,13.04-.05.1-.09.21-.14.31l.19.29c.05-.1.09-.21.14-.31,3.45-7.53,8.52-12.4,14.49-12.9,6.03-.51,11.9,3.52,16.59,10.49.06.09.13.19.19.29.32.48.63.97.93,1.48.06.1.12.2.18.3l.14-.32c-.06-.1-.12-.2-.18-.3Z"/><path class="cls-2" d="M58.49,34.64c-3.79-6.25-9.51-12.68-17.01-14.21-7.02-1.43-13.77,1.54-18.28,6.96-1.35,1.62-2.57,3.34-3.61,5.17-1.35,2.4-3.05,5.27-1.36,7.91s6.28,3.25,7.77,0c.79-1.71,1.66-3.38,2.7-4.95.28-.42.58-.84.88-1.25-.58.8.07-.08.21-.25.53-.63,1.1-1.24,1.7-1.8.33-.31.68-.6,1.02-.89-.83.72-.07.06.15-.09.62-.43,1.27-.76,1.93-1.13.45-.21.38-.18-.22.07.19-.08.38-.15.58-.22.29-.1.59-.19.88-.27.13-.03,1.13-.35,1.2-.26-.69.08-.78.1-.28.05.16-.01.32-.02.48-.03.38-.02.75-.02,1.13,0,.21.01.43.03.64.05-.61-.09-.74-.11-.4-.05.72.21,1.48.35,2.21.57,1.11.32-.48-.29.33.11.36.18.72.35,1.07.55.74.41,1.42.88,2.1,1.36.26.19.2.15-.17-.14.2.16.39.32.58.49.34.3.68.6,1,.92.68.66,1.33,1.35,1.94,2.07.1.12.99,1.22.5.58.31.4.61.82.9,1.24.59.85,1.15,1.73,1.68,2.62.82,1.36,2.29,2.23,3.89,2.23,1.43,0,3.29-.82,3.89-2.23.78-1.84,1.04-3.36-.05-5.17-1.21-2.02-4.1-2.94-6.16-1.61s-2.91,4-1.61,6.16l.18.3v-4.54l-.14.32h7.77c-3.65-6.09-8.79-11.93-15.79-14.08-6.52-2-13.26.34-17.99,5.03-2.79,2.76-4.89,6.17-6.52,9.71h7.77l-.19-.29v4.54c.78-1.7,1.64-3.36,2.68-4.93.28-.42.57-.83.87-1.25.61-.85-.42.45.2-.25.55-.61,1.08-1.24,1.68-1.81.33-.31.67-.6,1.01-.9.75-.66-.63.4.13-.1.63-.4,1.24-.81,1.91-1.15.19-.09.37-.18.56-.27-.6.25-.68.28-.22.1.29-.09.58-.2.87-.29.39-.11.79-.19,1.19-.28.87-.21-.99,0,.18-.01.38,0,.76-.04,1.14-.03.13,0,1.45.04.7.02s.52.11.69.14c.38.09.75.19,1.12.31.24.08,1.41.55.34.08.37.16.73.34,1.09.53.74.39,1.45.84,2.14,1.32.92.65-.23-.26.43.33.34.3.69.59,1.02.9.69.65,1.35,1.33,1.98,2.04.33.37.64.75.95,1.14-.49-.61.39.53.48.66.62.87,1.21,1.77,1.76,2.69,1.22,2.01,4.09,2.95,6.16,1.61s2.92-4,1.61-6.16Z"/></svg>