<?xml version="1.0" encoding="UTF-8"?><svg id="Layer_1" xmlns="http://www.w3.org/2000/svg" width="73" height="84" viewBox="0 0 73 84"><defs><style>.cls-1{fill:#f4f4f4;}.cls-2{fill:#fed12e;}.cls-3{fill:#1a1a1a;}</style></defs><path class="cls-2" d="M72.08,17.86v47.12c0,2.38-1.93,4.32-4.32,4.32H21.46c-2.38,0-4.32-1.93-4.32-4.32V5.33c0-2.38,1.93-4.32,4.32-4.32h32.98c1.1,0,2.16.42,2.96,1.17l13.32,12.54c.87.82,1.36,1.95,1.36,3.14Z"/><path class="cls-1" d="M71.33,17.86v45.4c0,.57.02,1.15,0,1.72-.1,2.25-1.82,3.56-3.96,3.57-2.83.01-5.67,0-8.5,0h-29.12c-2.67,0-5.35.03-8.02,0-2.11-.02-3.75-1.41-3.84-3.59-.02-.52,0-1.05,0-1.58V11.59c0-2.04-.06-4.1,0-6.14s1.55-3.62,3.67-3.69c1.02-.03,2.05,0,3.07,0h27.08c.9,0,1.8-.03,2.7,0,1.77.06,2.78,1.26,3.96,2.37,3.38,3.18,6.75,6.36,10.13,9.53,1.29,1.21,2.74,2.26,2.83,4.2.04.96,1.54.97,1.5,0-.1-2.18-1.33-3.44-2.79-4.82l-5.08-4.78-5.34-5.02c-1.24-1.16-2.42-2.53-4.16-2.88-.96-.19-2.01-.1-2.99-.1h-21.32c-3.19,0-6.4-.09-9.59,0-2.77.08-5,2.08-5.15,4.9-.03.5,0,1.01,0,1.51v52.98c0,1.77-.06,3.56,0,5.33.1,2.84,2.26,4.98,5.09,5.07.72.02,1.44,0,2.16,0h40.67c2.91,0,6.24.41,7.9-2.65,1.09-2.01.62-5.11.62-7.3V17.86c0-.97-1.5-.97-1.5,0Z"/><path class="cls-2" d="M64.26,24.81v47.12c0,2.38-1.93,4.32-4.32,4.32H13.64c-2.38,0-4.32-1.93-4.32-4.32V12.28c0-2.38,1.93-4.32,4.32-4.32h32.98c1.1,0,2.16.42,2.96,1.17l13.32,12.54c.87.82,1.36,1.95,1.36,3.14Z"/><path class="cls-1" d="M63.51,24.81v45.4c0,.57.02,1.15,0,1.72-.1,2.25-1.82,3.56-3.96,3.57-2.83.01-5.67,0-8.5,0h-29.12c-2.67,0-5.35.03-8.02,0-2.11-.02-3.75-1.41-3.84-3.59-.02-.52,0-1.05,0-1.58V18.54c0-2.04-.06-4.1,0-6.14s1.55-3.62,3.67-3.69c1.02-.03,2.05,0,3.07,0h27.08c.9,0,1.8-.03,2.7,0,1.77.06,2.78,1.26,3.96,2.37,3.38,3.18,6.75,6.36,10.13,9.53,1.29,1.21,2.74,2.26,2.83,4.2.04.96,1.54.97,1.5,0-.1-2.18-1.33-3.44-2.79-4.82l-5.08-4.78-5.34-5.02c-1.24-1.16-2.42-2.53-4.16-2.88-.96-.19-2.01-.1-2.99-.1h-21.32c-3.19,0-6.4-.09-9.59,0-2.77.08-5,2.08-5.15,4.9-.03.5,0,1.01,0,1.51v52.98c0,1.77-.06,3.56,0,5.33.1,2.84,2.26,4.98,5.09,5.07.72.02,1.44,0,2.16,0h40.67c2.91,0,6.24.41,7.9-2.65,1.09-2.01.62-5.11.62-7.3V24.81c0-.97-1.5-.97-1.5,0Z"/><path class="cls-2" d="M55.78,31.58v47.12c0,2.38-1.93,4.32-4.32,4.32H5.16c-2.38,0-4.32-1.93-4.32-4.32V19.04c0-2.38,1.93-4.32,4.32-4.32h32.98c1.1,0,2.16.42,2.96,1.17l13.32,12.54c.87.82,1.36,1.95,1.36,3.14Z"/><path class="cls-1" d="M55.03,31.58v45.4c0,.57.02,1.15,0,1.72-.1,2.25-1.82,3.56-3.96,3.57-2.83.01-5.67,0-8.5,0H13.45c-2.67,0-5.35.03-8.02,0-2.11-.02-3.75-1.41-3.84-3.59-.02-.52,0-1.05,0-1.58V25.31c0-2.04-.06-4.1,0-6.14s1.55-3.62,3.67-3.69c1.02-.03,2.05,0,3.07,0h27.08c.9,0,1.8-.03,2.7,0,1.77.06,2.78,1.26,3.96,2.37,3.38,3.18,6.75,6.36,10.13,9.53,1.29,1.21,2.74,2.26,2.83,4.2.04.96,1.54.97,1.5,0-.1-2.18-1.33-3.44-2.79-4.82l-5.08-4.78-5.34-5.02c-1.24-1.16-2.42-2.53-4.16-2.88-.96-.19-2.01-.1-2.99-.1H14.84c-3.19,0-6.4-.09-9.59,0-2.77.08-5,2.08-5.15,4.9-.03.5,0,1.01,0,1.51v52.98c0,1.77-.06,3.56,0,5.33.1,2.84,2.26,4.98,5.09,5.07.72.02,1.44,0,2.16,0h40.67c2.91,0,6.24.41,7.9-2.65,1.09-2.01.62-5.11.62-7.3V31.58c0-.97-1.5-.97-1.5,0Z"/><rect class="cls-3" x="6.19" y="18.54" width="5.72" height="9.92"/><rect class="cls-3" x="14.96" y="18.54" width="5.72" height="9.92"/><rect class="cls-3" x="23.73" y="18.54" width="5.72" height="9.92"/><rect class="cls-3" x="32.89" y="18.54" width="5.72" height="9.92"/><rect class="cls-3" x="42.81" y="25.4" width="5.72" height="9.92"/><path d="M17.4,59.39v-3.58h9.24v8.46c-.9.87-2.2,1.63-3.9,2.3-1.71.66-3.43.99-5.18.99-2.22,0-4.16-.47-5.81-1.4-1.65-.93-2.89-2.27-3.72-4-.83-1.73-1.25-3.62-1.25-5.66,0-2.21.46-4.18,1.39-5.9.93-1.72,2.28-3.04,4.07-3.96,1.36-.71,3.06-1.06,5.09-1.06,2.64,0,4.7.55,6.18,1.66,1.48,1.11,2.44,2.63,2.86,4.59l-4.26.8c-.3-1.04-.86-1.87-1.69-2.47-.83-.6-1.86-.91-3.09-.91-1.88,0-3.37.59-4.47,1.78-1.11,1.19-1.66,2.95-1.66,5.29,0,2.52.56,4.41,1.68,5.67,1.12,1.26,2.59,1.89,4.41,1.89.9,0,1.8-.18,2.7-.53.9-.35,1.68-.78,2.33-1.28v-2.7h-4.91Z"/><path d="M30.62,45.96h8.49c1.68,0,2.93.07,3.76.21.83.14,1.56.43,2.22.88s1.2,1.04,1.63,1.78.65,1.57.65,2.49c0,.99-.27,1.91-.8,2.74s-1.26,1.45-2.18,1.87c1.29.38,2.29,1.02,2.98,1.93.7.91,1.04,1.98,1.04,3.2,0,.97-.22,1.91-.67,2.82s-1.06,1.64-1.84,2.19c-.78.55-1.74.88-2.88,1.01-.71.08-2.44.12-5.17.14h-7.23v-21.24ZM34.91,49.49v4.91h2.81c1.67,0,2.71-.02,3.12-.07.73-.09,1.31-.34,1.73-.76.42-.42.63-.97.63-1.66s-.18-1.19-.54-1.6c-.36-.41-.9-.66-1.62-.75-.42-.05-1.65-.07-3.67-.07h-2.46ZM34.91,57.94v5.68h3.97c1.54,0,2.53-.04,2.94-.13.64-.12,1.16-.4,1.56-.85.4-.45.6-1.05.6-1.8,0-.64-.15-1.18-.46-1.62-.31-.44-.76-.77-1.34-.97s-1.85-.3-3.8-.3h-3.46Z"/></svg>