<svg width="281" height="217" viewBox="0 0 281 217" fill="none" xmlns="http://www.w3.org/2000/svg">
<g clip-path="url(#clip0_150_109)">
<path d="M92.2196 149.776C96.1682 165.458 96.339 182.864 93.4575 198.682C92.6394 203.163 99.4979 205.087 100.316 200.577C103.432 183.463 103.347 164.845 99.0781 147.88C97.9611 143.434 91.0955 145.323 92.2196 149.776Z" fill="#F4F4F4"/>
<path d="M40.9945 149.776C44.9431 165.458 45.1139 182.864 42.2324 198.682C41.4143 203.163 48.2728 205.087 49.0909 200.577C52.2071 183.463 52.1218 164.845 47.853 147.88C46.736 143.434 39.8704 145.323 40.9945 149.776Z" fill="#F4F4F4"/>
<path d="M42.3676 149.398C43.1787 152.597 43.7052 155.889 44.1605 159.152C44.1818 159.302 44.3028 160.171 44.253 159.843C44.3028 160.207 44.3455 160.57 44.3953 160.941C44.5091 161.874 44.6158 162.807 44.7154 163.741C44.9146 165.636 45.0712 167.531 45.1921 169.434C45.4696 173.801 45.5407 178.19 45.3842 182.565C45.1921 188.108 44.6301 193.623 43.6055 199.074C43.3921 200.206 43.9186 201.382 45.0996 201.703C46.1384 201.988 47.5115 201.354 47.7249 200.206C50.7131 184.254 50.3218 167.574 47.2198 151.657C46.9992 150.524 46.7716 149.391 46.487 148.272C45.8111 145.608 41.6917 146.733 42.3676 149.412V149.398Z" fill="#1A1A1A"/>
<path d="M93.5927 149.398C94.4038 152.597 94.9303 155.889 95.3856 159.152C95.4069 159.302 95.5279 160.171 95.4781 159.843C95.5279 160.207 95.5706 160.57 95.6204 160.941C95.7342 161.874 95.8409 162.807 95.9405 163.741C96.1397 165.636 96.2963 167.531 96.4172 169.434C96.6947 173.801 96.7658 178.19 96.6093 182.565C96.4172 188.108 95.8551 193.623 94.8306 199.074C94.6172 200.206 95.1437 201.382 96.3247 201.703C97.3634 201.988 98.7366 201.354 98.95 200.206C101.938 184.254 101.547 167.574 98.4449 151.657C98.2243 150.524 97.9966 149.391 97.7121 148.272C97.0362 145.608 92.9168 146.733 93.5927 149.412V149.398Z" fill="#1A1A1A"/>
<path d="M42.9078 194.2C42.9078 194.2 45.7181 198.176 49.4248 194.806L52.5908 196.159L58.4533 194.2L59.3782 195.183L56.9592 198.147L52.911 204.553L51.9292 208.935L51.8509 210.773C51.8509 210.773 41.1149 211.3 36.4478 206.712L38.9521 200.142L41.741 195.718L42.9007 194.2H42.9078Z" fill="#1A1A1A"/>
<path d="M51.709 211.393L51.9295 208.934C51.9295 208.934 53.0038 206.013 52.7121 205.137C52.4204 204.26 54.2631 201.574 54.2631 201.574L56.3335 198.796L59.3785 195.867L61.705 194.207C61.705 194.207 70.4987 193.587 74.9809 199.643L77.3999 202.059L79.9398 206.291L80.9501 208.678L79.456 208.543L73.7643 209.968L60.958 211.393" fill="#36B7FF"/>
<path d="M37.4158 207.524C37.4158 207.524 47.0205 212.333 58.6174 211.15C58.6174 211.15 78.2751 209.212 80.2956 208.521C80.2956 208.521 81.7399 209.704 80.9573 212.326C80.9573 212.326 58.5462 221.403 35.9217 212.126C35.9217 212.126 34.3565 209.362 35.9217 207.524L36.4624 206.711L37.4158 207.524Z" fill="#F4F4F4"/>
<path d="M43.1002 193.887C41.2077 195.369 39.7421 197.592 38.6037 199.665C38.0346 200.705 37.5365 201.788 37.1025 202.893C36.8606 203.512 36.633 204.147 36.4338 204.788C36.263 205.344 36.1705 205.978 35.9429 206.498C35.6867 207.089 35.3666 207.602 35.2029 208.243C34.9255 209.355 34.9397 210.531 35.21 211.649C35.4235 212.547 35.6512 212.604 36.384 212.91C37.1737 213.238 37.9776 213.53 38.7816 213.808C41.8978 214.863 45.1278 215.618 48.3792 216.124C53.2385 216.886 58.1761 217.1 63.0851 216.751C65.9523 216.544 68.8053 216.152 71.6227 215.582C73.1737 215.269 74.7176 214.898 76.2401 214.471C77.0085 214.257 77.7697 214.029 78.531 213.787C79.1642 213.587 79.9753 213.438 80.5373 213.081C81.7041 212.333 82.0812 210.588 81.7539 209.341C81.5761 208.664 81.1919 207.937 80.9215 207.267C79.961 204.873 78.6093 202.636 76.9515 200.67C74.4187 197.67 71.0749 195.411 67.2899 194.335C62.5729 192.996 57.2725 193.687 53.018 196.124C51.7587 196.851 50.6132 197.741 49.5745 198.76C49.0764 199.252 49.8093 199.943 50.3286 199.515C51.3674 198.667 52.4132 197.827 53.4519 196.979C53.7081 196.772 53.6298 196.281 53.3452 196.138C52.1215 195.54 50.9049 194.941 49.6812 194.343C49.5176 194.264 49.3041 194.229 49.1405 194.343C47.4899 195.504 45.2203 195.825 43.9255 193.993C43.5342 193.438 42.6093 193.972 43.0006 194.535C44.6298 196.836 47.497 196.808 49.6741 195.269H49.1334C50.3571 195.867 51.5737 196.466 52.7974 197.064L52.6907 196.224C51.6519 197.071 50.6061 197.912 49.5674 198.76L50.3215 199.515C53.9002 196.01 59.2788 194.207 64.2662 194.799C68.2219 195.269 71.9357 197.136 74.7816 199.907C76.7452 201.817 78.3176 204.111 79.4701 206.59C79.7334 207.16 79.9539 207.738 80.1745 208.322C80.6512 209.562 81.1847 210.68 80.2456 211.863C79.6907 212.561 78.5666 212.654 77.7413 212.91C76.3539 213.338 74.9523 213.723 73.5365 214.065C70.712 214.741 67.8448 215.233 64.9563 215.518C60.2606 215.988 55.5081 215.953 50.8195 215.39C47.433 214.984 44.0749 214.307 40.8093 213.331C39.7847 213.024 38.7745 212.689 37.7713 212.319C37.3017 212.141 36.6401 211.998 36.3128 211.735C36.2772 211.706 36.2203 211.706 36.1919 211.678C36.1919 211.678 36.1705 211.678 36.1705 211.663C36.3697 211.891 36.1847 211.136 36.1705 211.072C35.9571 210.003 36.0425 208.856 36.448 207.844C36.6259 207.388 36.9033 207.025 37.0314 206.548C37.3871 205.279 37.7713 204.025 38.2764 202.8C39.4646 199.914 41.165 197.05 43.4986 194.941C43.6124 194.841 43.7263 194.734 43.8472 194.642C44.3879 194.221 43.6266 193.466 43.0931 193.887H43.1002Z" fill="#E6E6E6"/>
<path d="M52.3916 210.773C52.1569 206.555 54.0565 202.016 56.8027 198.917C58.3679 197.15 60.2604 195.753 62.345 194.663C62.9569 194.343 62.4161 193.423 61.8043 193.737C55.8991 196.836 51.915 202.565 51.3671 209.248C51.3244 209.754 51.296 210.267 51.3244 210.773C51.36 211.457 52.4272 211.464 52.3916 210.773Z" fill="#E6E6E6"/>
<path d="M80.6228 207.823C76.9587 208.685 73.2164 209.269 69.4813 209.74C62.2386 210.652 54.7398 211.115 47.49 209.996C43.7263 209.412 39.92 208.386 36.7184 206.248C36.1421 205.864 35.6085 206.79 36.1777 207.175C42.1398 211.15 50.0085 211.72 56.9595 211.685C63.6046 211.649 70.2568 210.88 76.788 209.683C78.1611 209.433 79.5342 209.17 80.8931 208.849C81.5619 208.692 81.2773 207.659 80.6085 207.816L80.6228 207.823Z" fill="#E6E6E6"/>
<path d="M39.9769 204.546C39.9982 206.02 40.9018 207.317 42.2749 207.837C43.648 208.357 45.2488 207.916 46.1666 206.797C47.0844 205.678 47.2551 204.025 46.4939 202.75C45.7326 201.475 44.2528 200.841 42.8085 201.097C41.165 201.396 39.9982 202.9 39.9769 204.538C39.9698 205.23 41.037 205.23 41.0441 204.538C41.0583 203.534 41.6773 202.593 42.6306 202.244C43.584 201.895 44.7294 202.194 45.384 203.007C46.0385 203.819 46.0812 204.923 45.569 205.785C45.0567 206.647 44.0322 207.118 43.0504 206.94C41.8907 206.726 41.0583 205.707 41.037 204.531C41.0298 203.847 39.9626 203.84 39.9698 204.531L39.9769 204.546Z" fill="#E6E6E6"/>
<path d="M94.1334 193.487C94.1334 193.487 96.9437 197.463 100.65 194.093L103.816 195.447L109.679 193.487L110.604 194.471L108.185 197.435L104.137 203.84L103.155 208.222L103.077 210.06C103.077 210.06 92.3405 210.587 87.6733 205.999L90.1777 199.43L92.9666 195.005L94.1263 193.487H94.1334Z" fill="#1A1A1A"/>
<path d="M102.934 210.68L103.155 208.222C103.155 208.222 104.229 205.301 103.937 204.424C103.646 203.548 105.488 200.862 105.488 200.862L107.559 198.083L110.604 195.155L112.93 193.495C112.93 193.495 121.724 192.875 126.206 198.931L128.625 201.346L131.165 205.579L132.175 207.966L130.681 207.83L124.989 209.255L112.183 210.68" fill="#36B7FF"/>
<path d="M88.6409 206.811C88.6409 206.811 98.2456 211.621 109.842 210.438C109.842 210.438 129.5 208.5 131.521 207.809C131.521 207.809 132.965 208.992 132.182 211.614C132.182 211.614 109.771 220.691 87.1468 211.414C87.1468 211.414 85.5816 208.65 87.1468 206.811L87.6875 205.999L88.6409 206.811Z" fill="#F4F4F4"/>
<path d="M94.3253 193.174C92.4328 194.656 90.9672 196.879 89.8288 198.952C89.2597 199.993 88.7616 201.076 88.3276 202.18C88.0857 202.8 87.8581 203.434 87.6589 204.075C87.4881 204.631 87.3956 205.265 87.1679 205.785C86.9118 206.377 86.5917 206.89 86.428 207.531C86.1506 208.642 86.1648 209.818 86.4351 210.937C86.6486 211.834 86.8763 211.891 87.6091 212.198C88.3988 212.526 89.2027 212.818 90.0067 213.096C93.1229 214.15 96.3529 214.905 99.6043 215.411C104.464 216.174 109.401 216.387 114.31 216.038C117.177 215.832 120.03 215.44 122.848 214.87C124.399 214.556 125.943 214.186 127.465 213.758C128.234 213.544 128.995 213.316 129.756 213.074C130.389 212.875 131.2 212.725 131.762 212.369C132.929 211.621 133.306 209.875 132.979 208.628C132.801 207.951 132.417 207.225 132.147 206.555C131.186 204.161 129.834 201.924 128.177 199.957C125.644 196.957 122.3 194.699 118.515 193.623C113.798 192.283 108.498 192.975 104.243 195.411C102.984 196.138 101.838 197.029 100.8 198.048C100.302 198.539 101.034 199.23 101.554 198.803C102.592 197.955 103.638 197.114 104.677 196.266C104.933 196.06 104.855 195.568 104.57 195.426C103.347 194.827 102.13 194.229 100.906 193.63C100.743 193.552 100.529 193.516 100.366 193.63C98.715 194.791 96.4454 195.112 95.1506 193.281C94.7593 192.725 93.8344 193.26 94.2257 193.822C95.8549 196.124 98.7221 196.095 100.899 194.556H100.358C101.582 195.155 102.799 195.753 104.023 196.352L103.916 195.511C102.877 196.359 101.831 197.2 100.792 198.048L101.547 198.803C105.125 195.297 110.504 193.495 115.491 194.086C119.447 194.556 123.161 196.423 126.007 199.195C127.97 201.104 129.543 203.398 130.695 205.878C130.958 206.448 131.179 207.025 131.4 207.609C131.876 208.849 132.41 209.968 131.471 211.15C130.916 211.849 129.792 211.941 128.966 212.198C127.579 212.625 126.177 213.01 124.762 213.352C121.937 214.029 119.07 214.521 116.181 214.806C111.486 215.276 106.733 215.24 102.045 214.677C98.6581 214.271 95.3 213.594 92.0344 212.618C91.0098 212.312 89.9996 211.977 88.9964 211.606C88.5268 211.428 87.8652 211.286 87.5379 211.022C87.5023 210.994 87.4454 210.994 87.417 210.965C87.417 210.965 87.3956 210.965 87.3956 210.951C87.5948 211.179 87.4098 210.424 87.3956 210.36C87.1822 209.291 87.2676 208.144 87.6731 207.132C87.851 206.676 88.1284 206.313 88.2565 205.835C88.6122 204.567 88.9964 203.313 89.5015 202.087C90.6897 199.202 92.3901 196.338 94.7237 194.229C94.8375 194.129 94.9514 194.022 95.0723 193.929C95.613 193.509 94.8517 192.754 94.3182 193.174H94.3253Z" fill="#E6E6E6"/>
<path d="M103.617 210.06C103.382 205.842 105.282 201.304 108.028 198.204C109.594 196.437 111.486 195.041 113.571 193.951C114.182 193.63 113.642 192.711 113.03 193.024C107.125 196.124 103.141 201.852 102.593 208.535C102.55 209.041 102.522 209.554 102.55 210.06C102.586 210.744 103.653 210.751 103.617 210.06Z" fill="#E6E6E6"/>
<path d="M131.848 207.11C128.184 207.973 124.442 208.557 120.706 209.027C113.464 209.939 105.965 210.402 98.7151 209.284C94.9514 208.699 91.1451 207.673 87.9435 205.536C87.3672 205.151 86.8336 206.077 87.4028 206.462C93.3649 210.438 101.234 211.008 108.185 210.972C114.83 210.937 121.482 210.167 128.013 208.97C129.386 208.721 130.759 208.457 132.118 208.136C132.787 207.98 132.502 206.947 131.834 207.103L131.848 207.11Z" fill="#E6E6E6"/>
<path d="M91.202 203.833C91.2233 205.308 92.1269 206.605 93.5 207.125C94.8731 207.645 96.4739 207.203 97.3917 206.084C98.3095 204.966 98.4802 203.313 97.719 202.037C96.9577 200.762 95.4779 200.128 94.0336 200.384C92.3901 200.684 91.2233 202.187 91.202 203.826C91.1949 204.517 92.2621 204.517 92.2692 203.826C92.2834 202.821 92.9024 201.881 93.8557 201.532C94.8091 201.182 95.9545 201.482 96.6091 202.294C97.2636 203.106 97.3063 204.211 96.7941 205.073C96.2818 205.935 95.2573 206.405 94.2755 206.227C93.1158 206.013 92.2834 204.994 92.2621 203.819C92.2549 203.135 91.1877 203.128 91.1949 203.819L91.202 203.833Z" fill="#E6E6E6"/>
<path d="M119.277 128.052C123.211 133.082 130.418 140.064 137.469 138.126C141.311 137.072 143.851 133.288 145.715 130.025C149.03 124.197 151.414 117.813 154.039 111.657C155.818 107.489 149.692 103.855 147.899 108.059C145.786 113.011 143.78 118.027 141.425 122.879C140.322 125.152 138.43 130.324 135.719 131.215C131.877 132.483 126.363 125.629 124.321 123.014C121.497 119.409 116.495 124.482 119.291 128.052H119.277Z" fill="#F4F4F4"/>
<path d="M16.314 108.565C12.4223 110.966 9.03578 114.372 6.30376 118.012C3.01681 122.394 -2.7745 131.692 1.92827 136.708C5.57096 140.584 11.3196 142.95 16.065 145.116C19.3947 146.634 25.1717 150.303 28.9567 148.572C33.1117 146.662 29.5046 140.52 25.3638 142.423C26.801 141.76 28.1812 142.387 26.7868 141.838C26.1322 141.582 25.4492 141.39 24.7876 141.14C22.8239 140.406 20.9101 139.558 19.0034 138.675C15.1401 136.887 11.0563 135.013 7.684 132.376C6.61681 131.536 7.29981 131.464 7.13617 132.141C6.88005 133.217 7.52748 131.493 7.6342 131.094C7.84764 130.289 8.08242 129.491 8.37412 128.714C9.41285 125.943 11.0136 123.328 12.9061 121.062C14.8911 118.682 17.2318 116.374 19.8856 114.735C23.7773 112.334 20.2057 106.171 16.2927 108.586L16.314 108.565Z" fill="#F4F4F4"/>
<path d="M149.258 106.798C148.838 108.13 148.383 109.448 147.913 110.759C147.415 112.149 146.903 113.531 146.369 114.899C146.063 115.69 145.743 116.473 145.423 117.257C145.352 117.428 145.281 117.606 145.21 117.777C145.082 118.084 145.338 117.485 145.21 117.792C145.174 117.877 145.139 117.97 145.096 118.055C144.918 118.468 144.74 118.882 144.562 119.288C143.154 122.48 141.617 125.65 139.667 128.55C139.468 128.85 139.262 129.142 139.048 129.434C138.977 129.534 138.622 129.99 138.949 129.569C138.835 129.712 138.728 129.854 138.614 129.99C138.195 130.503 137.746 130.994 137.256 131.443C137.142 131.543 137.028 131.643 136.914 131.742C136.686 131.942 136.708 131.871 136.957 131.721C136.708 131.871 136.48 132.056 136.224 132.198C136.11 132.262 135.989 132.305 135.882 132.376C135.612 132.54 136.309 132.277 136.003 132.319C135.875 132.334 135.719 132.398 135.598 132.441C135.384 132.519 135.769 132.426 135.79 132.426C135.655 132.441 135.52 132.448 135.392 132.448C135.192 132.448 134.993 132.433 134.794 132.426C134.395 132.405 134.737 132.412 134.822 132.426C134.694 132.405 134.573 132.384 134.445 132.355C133.912 132.241 133.385 132.07 132.873 131.878C132.105 131.593 130.931 130.966 129.977 130.367C128.896 129.683 128.206 129.184 127.309 128.365C126.89 127.98 126.477 127.574 126.1 127.147C126.022 127.054 125.673 126.634 125.773 126.755C125.844 126.847 125.509 126.356 125.424 126.228C123.973 123.898 120.28 126.042 121.739 128.386C122.969 130.36 124.755 131.906 126.626 133.253C128.497 134.599 130.675 135.789 132.93 136.381C134.801 136.872 136.672 136.837 138.38 135.882C139.618 135.191 140.678 134.151 141.581 133.068C143.908 130.267 145.651 127.018 147.202 123.741C148.753 120.463 150.204 116.908 151.492 113.41C152.161 111.6 152.808 109.776 153.384 107.938C154.21 105.309 150.09 104.183 149.265 106.798H149.258Z" fill="#1A1A1A"/>
<path d="M15.7733 110.51C13.525 112.227 11.4405 114.165 9.51951 116.238C6.22544 119.794 2.9456 124.104 1.99935 128.978C1.59382 131.051 1.38749 133.687 2.52583 135.576C3.40093 137.029 4.85943 138.105 6.24678 139.038C9.88947 141.482 14.0444 143.221 18.0997 144.824C20.1559 145.636 22.2333 146.398 24.3393 147.068C25.5701 147.46 26.929 147.959 28.2381 147.987C30.9843 148.037 30.9843 143.762 28.2381 143.712C27.7187 143.705 28.6934 143.819 28.3733 143.741C28.1669 143.691 27.9606 143.655 27.7543 143.605C27.178 143.463 26.6088 143.299 26.0397 143.128C24.3891 142.622 22.7527 142.045 21.1377 141.439C20.1701 141.076 19.2096 140.705 18.2563 140.314C18.0144 140.214 17.7796 140.114 17.5377 140.022C17.0824 139.836 17.6017 140.05 17.1464 139.858C16.6341 139.637 16.129 139.416 15.6239 139.188C13.7527 138.347 11.9029 137.449 10.1243 136.423C9.36299 135.982 8.61595 135.519 7.89738 135.006C7.84046 134.963 7.32109 134.585 7.59856 134.792C7.87603 134.998 7.44915 134.671 7.39224 134.621C7.10765 134.386 6.8373 134.136 6.58117 133.873C6.48156 133.766 6.38908 133.645 6.28947 133.545C6.05469 133.324 6.55983 134.001 6.31793 133.58C6.26101 133.474 6.18987 133.367 6.12583 133.267C5.88394 132.911 6.18987 133.659 6.16141 133.36C6.14718 133.239 6.09738 133.103 6.07603 132.982C6.05469 132.861 6.03334 132.733 6.012 132.604C6.07603 133.025 6.02623 132.69 6.01911 132.604C5.99066 132.027 5.96931 131.464 6.01911 130.887C6.02623 130.759 6.04046 130.631 6.05469 130.503C5.98354 130.916 6.04757 130.588 6.05469 130.503C6.10449 130.246 6.14718 129.99 6.20409 129.74C6.31793 129.227 6.46734 128.721 6.63809 128.223C6.72346 127.966 6.81595 127.717 6.91556 127.467C7.07208 127.075 6.97247 127.332 6.9369 127.417C6.99382 127.289 7.04362 127.168 7.10054 127.047C7.35666 126.484 7.64836 125.935 7.95429 125.394C8.50212 124.425 9.12109 123.492 9.77564 122.587C9.93927 122.359 10.1029 122.138 10.2737 121.917C10.0887 122.152 10.4942 121.639 10.5796 121.539C10.9638 121.069 11.3551 120.606 11.7535 120.15C13.1409 118.582 14.6278 117.1 16.193 115.711C16.6911 115.262 17.2033 114.828 17.7227 114.4C17.9503 114.215 18.8041 113.552 17.9361 114.222C18.8539 113.524 19.3377 112.384 18.7045 111.301C18.178 110.396 16.7053 109.826 15.7875 110.531L15.7733 110.51Z" fill="#1A1A1A"/>
<path d="M73.0531 159.024C105.47 159.024 131.749 133.823 131.749 102.736C131.749 71.6497 105.47 46.4489 73.0531 46.4489C40.6364 46.4489 14.3574 71.6497 14.3574 102.736C14.3574 133.823 40.6364 159.024 73.0531 159.024Z" fill="#F4F4F4" stroke="white" stroke-miterlimit="10"/>
<path d="M53.8434 50.788C53.8007 50.8094 53.9501 51.3367 53.4379 51.6003C50.0869 52.4197 47.7248 55.2982 44.3596 55.6687C41.5565 54.9989 48.3225 53.4457 49.3754 52.954C49.8735 52.7189 50.7201 50.7453 53.8505 50.7809L53.8434 50.788Z" fill="#CDF545"/>
<path d="M109.409 60.0149C109.352 61.4969 106.933 59.7299 106.563 59.7441C106.036 59.7584 104.884 61.2831 101.952 60.2856C101.205 61.7605 99.633 61.3401 99.5121 62.7295C99.1706 62.9504 94.4536 60.6775 95.9903 60.5564C96.154 60.5421 99.0069 62.5015 98.5658 60.421C98.4804 60.022 93.4291 57.9415 92.739 57.8418C87.1326 57.0224 86.4923 60.2215 85.1476 61.3686C84.5571 61.8745 81.5832 61.6465 82.3018 64.7601C82.871 67.2325 84.9484 65.2446 85.418 65.437C85.9801 65.665 86.5421 70.3746 89.8931 65.3016C88.7476 64.3611 89.0393 61.5468 90.2986 61.0979C94.5105 59.5945 90.0425 63.6843 91.6504 64.6248C92.682 65.2304 94.7097 64.0191 95.037 64.7601C95.6702 66.1994 93.6283 65.5296 93.0022 65.7078C92.0986 65.9714 93.6781 66.9475 93.0022 67.3394C92.5824 67.5816 91.7144 66.7765 91.6504 66.7979C91.252 66.919 86.4923 71.3365 84.8773 66.7979C84.3793 69.5054 84.116 68.4794 83.248 69.2418C80.9642 71.251 79.3635 73.2246 76.3397 73.9941C82.814 81.2474 69.9579 74.2293 73.2235 83.3564C80.2528 86.812 77.0299 78.2121 85.1476 77.6564C93.9769 84.5676 87.7943 81.226 87.7231 82.6795C87.7231 82.8078 89.5089 83.9478 89.7579 84.1758C89.4591 82.2591 91.0457 83.221 91.5223 81.055C83.8599 75.4263 88.0148 75.2766 91.7927 79.972C92.2978 80.599 94.1263 84.646 94.6386 84.7244C97.3777 85.1305 94.4678 81.5395 94.5034 81.3329C94.7666 79.6371 97.15 80.9553 97.3492 80.9268C100.679 80.4921 96.6591 72.8684 101.412 77.6706C103.617 76.4808 109.394 80.9339 104.663 80.656C102.13 80.5064 101.59 78.2264 96.9366 81.6036C99.4409 87.2039 106.982 80.1573 103.034 89.0706C94.4536 89.833 94.731 85.2231 92.7318 89.3414C83.8599 86.2349 87.2678 85.501 86.6346 84.0475C85.7382 81.9813 76.9943 85.672 75.116 84.9951C73.3018 87.097 71.8789 87.8665 71.7295 90.8305C66.5429 93.6591 67.3469 97.9983 66.5785 103.043C71.637 110.118 72.1919 112.605 81.8891 109.149C82.8283 110.517 85.3397 110.325 86.0868 111.187C87.531 112.84 85.8378 114.144 86.0868 115.255C86.1224 115.412 88.0006 117.143 88.2567 117.699C92.3548 126.555 84.55 125.565 89.886 132.355C89.1888 136.224 93.1018 138.019 92.0559 141.04C92.3548 142.223 96.965 141.475 97.8828 141.176C101.682 139.929 101.839 134.528 104.521 132.626C103.382 126.349 109.465 129.085 108.861 122.58C108.825 122.173 107.182 120.292 108.59 116.609C109.103 115.262 116.886 108.892 116.722 104.667C116.637 102.394 114.688 105.515 111.436 105.615L102.628 91.6356L103.034 91.2295C110.54 96.9509 110.447 103.705 111.166 103.983C115.278 100.92 125.957 98.3046 118.487 92.854C114.631 95.9534 112.71 89.8758 113.606 89.5979C117.64 93.8159 123.88 92.626 124.449 92.854C124.854 93.0179 126.825 95.818 129.194 96.2455C128.568 97.0079 130.212 100.157 131.094 100.449C131.841 120.157 120.08 139.516 103.582 149.576C64.067 173.68 12.5358 143.534 15.3603 99.3591C23.7627 102.06 24.0117 108.144 26.3382 106.413C29.0133 109.804 28.067 109.797 26.203 113.061C26.1034 114.322 27.384 114.236 26.203 116.587C28.3374 120.114 30.0733 124.19 33.7943 126.356C34.1429 130.474 36.2488 134.571 35.9642 138.568C36.5405 138.988 42.0046 148.536 42.467 147.524C41.2646 145.957 43.3919 145.85 41.6559 143.997C41.6417 143.164 43.4204 142.879 42.1967 142.095C45.8393 140.955 44.018 138.967 46.5366 137.749C46.5793 134.756 48.8275 135.312 48.4362 130.695C49.6243 129.177 51.3318 130.339 52.2283 128.251C52.7903 126.163 52.2781 123.321 52.4986 122.551C52.9682 120.941 59.969 118.547 44.5018 112.918C43.1144 107.389 40.731 108.999 40.4393 108.85C39.6354 108.444 38.5469 106.292 36.6472 105.323C34.271 106.456 33.5453 103.77 30.9555 104.24C27.7682 104.817 30.9911 108.885 24.3176 104.917C25.0789 98.0196 21.2868 103.285 23.3714 96.6374C22.667 96.2028 19.2164 99.9505 18.4907 99.8935C16.7832 99.7653 15.0046 94.4144 19.8425 91.2081L26.0749 90.3959C29.3121 97.9911 27.3769 90.9873 27.8393 89.1775C28.2876 87.4105 32.3358 87.0828 32.4496 83.7483L38.0061 78.7251C39.5429 78.9603 46.3658 75.9891 41.6631 76.9581C42.901 75.3479 40.5176 74.3148 41.7982 73.5666C42.652 73.0679 43.4488 73.645 44.7793 73.2959C47.1342 72.676 48.8773 70.2036 44.9144 75.0629C52.0646 77.2218 46.316 69.3059 45.5903 65.9714C40.9943 69.94 44.0465 66.2208 42.6093 65.4299C39.8915 63.9265 38.0204 67.3893 38.1342 69.6336C35.2528 71.9279 32.9405 77.7775 34.3421 71.536C26.822 68.8071 29.0844 69.1919 34.2069 64.069C36.448 65.3658 37.2378 65.1021 39.7635 64.7459C33.7587 62.0669 42.8156 64.4751 40.4393 60.5421C39.1231 62.3519 34.3706 63.1784 36.7824 60.0006C36.8749 59.9294 36.8393 59.4591 38.682 58.6469C39.2725 58.3833 40.0125 58.654 40.4465 57.8346C41.1081 60.8984 42.5666 58.1695 44.5089 59.4663C47.5113 61.4613 41.9263 61.4043 43.0148 63.9479C43.8899 65.9856 46.4797 63.3708 47.3548 62.5941C45.4765 59.9436 48.5073 62.0313 50.0654 59.6088C45.9176 59.4093 47.8599 57.1221 45.5903 58.1125C45.071 56.2173 43.399 58.5471 40.5745 57.3003C41.2433 56.8799 40.8591 56.8585 41.9263 56.488C42.1255 57.6494 46.6931 56.6091 46.2662 55.8111C45.8038 55.9038 45.3911 55.9251 44.9144 55.9465C44.9287 55.5404 44.5943 55.7256 44.3737 55.6758C47.7389 55.3053 50.101 52.4268 53.452 51.6074C53.9642 51.3438 53.8148 50.8165 53.8575 50.7951C65.3832 45.031 86.6631 47.4464 98.1745 52.6975C102.301 54.5785 105.908 57.2219 109.423 60.0291L109.409 60.0149Z" fill="#36B7FF"/>
<path d="M40.5605 57.3003C43.3779 58.5472 45.0498 56.2173 45.5763 58.1125C47.8387 57.115 45.8964 59.4022 50.0514 59.6088C48.4933 62.0313 45.4624 59.9508 47.3407 62.5942C46.4727 63.3708 43.883 65.9857 43.0008 63.9479C41.9051 61.4043 47.4972 61.4613 44.4948 59.4663C42.5454 58.1695 41.0941 60.9055 40.4324 57.8347C39.9984 58.654 39.2585 58.3833 38.668 58.6469C38.981 57.9772 40.0411 57.6209 40.5676 57.2932L40.5605 57.3003Z" fill="#CDF545"/>
<path d="M41.9192 56.488C42.8512 56.1603 43.7263 55.9964 44.9003 55.9465C45.3769 55.9251 45.7896 55.9038 46.252 55.8111C46.686 56.6091 42.1184 57.6494 41.9121 56.488H41.9192Z" fill="#CDF545"/>
<path d="M69.1541 48.3441C73.8071 49.9615 79.0435 47.2825 71.4593 51.4649C72.5478 52.7545 69.2964 53.98 69.2893 54.1795C69.2893 54.3434 72.2277 55.9893 68.6134 55.3979C68.3858 57.4428 65.3407 57.0295 64.2735 57.571C62.9786 58.2194 62.2458 59.3024 61.5628 59.7441C61.4703 59.8083 60.4672 59.623 59.9336 60.0149C58.1407 61.3544 57.5288 63.5346 57.3581 63.6771C55.3873 65.4014 53.2672 61.2831 54.1067 59.0601C54.2703 58.6255 55.7359 58.312 55.7359 57.9771C55.7359 57.7206 53.8292 57.4713 55.4656 54.1795L50.585 53.638C54.1067 51.7356 57.5715 49.7834 61.5628 49.1564C63.9533 48.7788 66.9557 49.8546 69.1541 48.3441Z" fill="#CDF545"/>
<path d="M114.147 123.256C117.69 122.544 110.696 140.121 109.401 132.619C108.982 130.196 111.799 129.355 110.483 126.648L111.159 125.7C113.464 125.679 113.443 123.399 114.14 123.256H114.147Z" fill="#CDF545"/>
<path d="M75.664 65.9856C77.9478 64.8955 77.0727 67.6101 77.1581 67.7526C77.6846 68.6789 83.3336 72.2699 75.8063 72.0989C76.0696 70.5599 77.1439 69.5268 76.4822 68.9781C76.3257 69.826 74.7605 66.4274 75.6711 65.9928L75.664 65.9856Z" fill="#CDF545"/>
<path d="M26.0609 95.0271C27.1067 94.8561 30.415 97.9128 30.6711 98.0125C30.8134 98.0695 33.5028 97.2074 33.2466 98.6894C33.1826 99.0599 31.0624 99.6798 30.9415 99.637C30.4648 99.4803 30.6925 98.5255 29.8601 98.0054C29.4545 97.756 23.5707 95.4261 26.068 95.02L26.0609 95.0271Z" fill="#CDF545"/>
<path d="M68.3428 58.9319C68.5704 58.8535 72.3554 59.2739 73.0882 59.338C68.293 63.2924 67.1546 59.3451 68.3428 58.9319Z" fill="#CDF545"/>
<path d="M74.5751 68.4295C76.4534 68.5364 74.8668 71.9991 72.9459 71.1441C71.4233 70.4601 73.9917 68.401 74.5751 68.4295Z" fill="#CDF545"/>
<path d="M100.053 59.4734C101.54 58.939 101.376 60.8556 100.593 61.105C98.587 61.7463 99.7183 59.5945 100.053 59.4734Z" fill="#CDF545"/>
<path d="M85.1475 78.7465C85.6811 78.6325 86.1079 81.7461 85.1475 82.0026V78.7465Z" fill="#CDF545"/>
<path d="M28.5009 98.5611C29.4471 97.9127 30.1657 100.414 28.5009 99.3734C28.2803 99.238 28.2803 98.7107 28.5009 98.5611Z" fill="#CDF545"/>
<path d="M82.1667 80.6417C82.9706 80.6916 82.5651 81.7675 81.8963 81.7247C81.1635 81.682 81.939 80.6275 82.1667 80.6417Z" fill="#CDF545"/>
<path d="M102.223 84.988C103.013 84.4394 103.333 85.6435 102.764 85.8003C101.988 86.014 101.867 85.2303 102.223 84.988Z" fill="#CDF545"/>
<path d="M36.0921 99.6442C37.0313 99.523 36.7467 100.67 35.8218 100.186C35.5514 100.043 36.0352 99.6513 36.0921 99.6442Z" fill="#CDF545"/>
<path d="M37.1735 101.547C37.2162 101.547 37.6217 102.28 37.4439 102.359C36.5403 102.772 36.7253 101.539 37.1735 101.547Z" fill="#CDF545"/>
<path d="M34.1926 98.8319C34.8899 98.4614 34.9752 99.3164 34.463 99.3734C34.4345 99.3734 33.9152 98.9744 34.1926 98.8319Z" fill="#CDF545"/>
<path d="M37.7144 102.629C38.0488 102.401 38.0701 103.67 37.7144 103.442C37.5081 103.313 37.4796 102.786 37.7144 102.629Z" fill="#CDF545"/>
<path d="M109.409 60.0149C121.532 69.6764 130.489 84.6246 131.094 100.456C130.212 100.157 128.568 97.015 129.194 96.2526C126.825 95.8251 124.854 93.025 124.449 92.8611C123.88 92.6331 117.647 93.823 113.606 89.605C112.71 89.8829 114.631 95.9605 118.487 92.8611C125.957 98.3118 115.278 100.927 111.166 103.99C110.447 103.713 110.54 96.9509 103.034 91.2366L102.628 91.6428L111.436 105.622C114.688 105.522 116.637 102.402 116.722 104.674C116.886 108.9 109.103 115.269 108.59 116.616C107.182 120.3 108.825 122.181 108.861 122.587C109.473 129.092 103.383 126.356 104.521 132.633C101.839 134.535 101.675 139.936 97.883 141.183C96.9652 141.482 92.3549 142.23 92.0561 141.048C93.1019 138.027 89.1889 136.231 89.8861 132.362C84.5501 125.572 92.362 126.555 88.2569 117.706C88.0007 117.15 86.1225 115.426 86.0869 115.262C85.8379 114.144 87.5312 112.847 86.0869 111.194C85.3399 110.339 82.8284 110.524 81.8893 109.156C72.1849 112.612 71.63 110.125 66.5786 103.05C67.347 98.0054 66.543 93.6591 71.7296 90.8376C71.879 87.8736 73.3019 87.1041 75.1162 85.0023C76.9944 85.6791 85.7383 81.9884 86.6347 84.0546C87.2679 85.5081 83.8671 86.2349 92.732 89.3485C94.7241 85.2303 94.4466 89.8401 103.034 89.0778C106.983 80.1715 99.4411 87.211 96.9367 81.6108C101.59 78.2264 102.13 80.5135 104.663 80.6631C109.394 80.941 103.617 76.4879 101.412 77.6778C96.6521 72.8755 100.679 80.4993 97.3494 80.9339C97.1502 80.9624 94.7668 79.6514 94.5035 81.34C94.4679 81.5538 97.3778 85.1376 94.6387 84.7315C94.1264 84.6531 92.298 80.6061 91.7928 79.9791C88.015 75.2838 83.86 75.4334 91.5225 81.0621C91.0458 83.2281 89.4664 82.2663 89.7581 84.1829C89.5162 83.962 87.7162 82.8149 87.7233 82.6866C87.8015 81.2403 93.977 84.5748 85.1478 77.6635C77.03 78.2193 80.2529 86.8191 73.2237 83.3635C69.9581 74.2293 82.8142 81.2474 76.3399 74.0013C79.3707 73.2389 80.9715 71.2653 83.2482 69.2489C84.1162 68.4865 84.3723 69.5125 84.8774 66.805C86.4996 71.3436 91.2521 66.9261 91.6506 66.805C91.7217 66.7836 92.5826 67.5888 93.0023 67.3465C93.6782 66.9618 92.0988 65.9856 93.0023 65.7149C93.6284 65.5296 95.6703 66.2065 95.0371 64.7673C94.7098 64.0263 92.6822 65.2375 91.6506 64.6319C90.0355 63.6843 94.5106 59.6016 90.2988 61.105C89.0395 61.5539 88.7478 64.3754 89.8932 65.3088C86.5422 70.3818 85.9802 65.6721 85.4181 65.4441C84.9486 65.2518 82.8711 67.2396 82.3019 64.7673C81.5834 61.6536 84.5573 61.8745 85.1478 61.3758C86.4924 60.2286 87.1328 57.0224 92.7391 57.8489C93.4292 57.9486 98.4806 60.0291 98.566 60.4281C99.0071 62.5086 96.1612 60.5493 95.9905 60.5635C94.4537 60.6846 99.1778 62.9504 99.5122 62.7366C99.6332 61.3544 101.198 61.7676 101.953 60.2928C104.877 61.2903 106.036 59.7655 106.563 59.7513C106.933 59.7441 109.352 61.504 109.409 60.022V60.0149Z" fill="#CDF545"/>
<path d="M15.3601 99.3734C16.3277 84.2898 24.4455 68.914 36.7752 60.0149C34.3633 63.1998 39.1159 62.3661 40.4321 60.5564C42.8084 64.4894 33.7514 62.0883 39.7562 64.7601C37.2305 65.1164 36.4408 65.38 34.1997 64.0833C29.0843 69.2061 26.8147 68.8214 34.3348 71.5503C32.9333 77.7918 35.2526 71.9421 38.1269 69.6479C38.006 67.3964 39.8771 63.9336 42.602 65.4441C44.0392 66.235 40.987 69.9614 45.5831 65.9856C46.3088 69.3201 52.0574 77.236 44.9072 75.0771C48.87 70.225 47.1269 72.6903 44.772 73.3101C43.4416 73.6593 42.6447 73.0821 41.791 73.5809C40.5103 74.329 42.8937 75.3621 41.6558 76.9724C46.3586 75.9963 39.5356 78.9745 37.9989 78.7394L32.4424 83.7625C32.3356 87.097 28.2803 87.4248 27.8321 89.1918C27.3696 91.0086 29.3048 98.0054 26.0677 90.4101L19.8352 91.2224C14.9902 94.4286 16.7688 99.7795 18.4835 99.9078C19.2092 99.9576 22.6597 96.217 23.3641 96.6516C21.2866 103.292 25.0716 98.0339 24.3103 104.931C30.9839 108.9 27.7609 104.831 30.9483 104.254C33.538 103.784 34.2637 106.477 36.64 105.337C38.5396 106.313 39.6281 108.458 40.4321 108.864C40.7309 109.014 43.1143 107.403 44.4945 112.932C59.9617 118.561 52.9609 120.962 52.4914 122.565C52.2708 123.335 52.7831 126.178 52.221 128.265C51.3246 130.353 49.6171 129.192 48.4289 130.709C48.8202 135.326 46.5791 134.77 46.5293 137.763C44.0179 138.974 45.8392 140.962 42.1894 142.109C43.406 142.893 41.6273 143.178 41.6487 144.012C43.3846 145.864 41.2574 145.971 42.4597 147.538C41.9973 148.55 36.5333 139.003 35.957 138.582C36.2416 134.585 34.1356 130.488 33.787 126.37C30.0661 124.204 28.3372 120.129 26.1957 116.602C27.3767 114.25 26.0961 114.336 26.1957 113.075C28.0597 109.812 29.006 109.812 26.3309 106.427C24.0044 108.159 23.7554 102.067 15.353 99.3734H15.3601Z" fill="#CDF545"/>
<path d="M31.482 105.344C31.9658 105.088 32.0512 106.249 31.7523 106.427C31.6243 106.498 31.0267 105.579 31.482 105.344Z" fill="#CDF545"/>
<path d="M146.099 101.846C146.099 101.846 138.692 104.404 146.447 112.476C147.415 113.488 148.404 114.486 149.343 115.533C151.641 118.091 156.472 122.715 158.279 118.889L160.242 115.704C160.242 115.704 163.978 115.569 166.923 113.631C167.556 113.217 168.211 112.854 168.908 112.562C172.451 111.087 182.554 106.171 177.303 99.8722C177.303 99.8722 177.19 91.7425 171.192 93.1675C171.192 93.1675 170.423 86.0996 164.02 85.8074C164.02 85.8074 157.823 86.3703 153.042 92.9467C153.042 92.9467 151.869 84.1616 145.06 82.1523C145.06 82.1523 144.974 82.1238 144.825 82.0811C141.673 81.2617 138.827 84.2186 139.674 87.3749C140.201 89.3414 141.567 92.1059 144.683 95.8323C144.683 95.8323 146.148 98.2049 146.106 101.839L146.099 101.846Z" fill="#F4F4F4"/>
<path d="M145.821 100.813C142.819 101.867 141.147 104.924 142.193 108.002C143.374 111.457 146.44 113.958 148.838 116.559C150.609 118.483 152.972 120.976 155.696 121.361C157.24 121.582 158.386 120.82 159.154 119.523C159.809 118.419 160.492 117.336 161.168 116.245L160.243 116.773C162.007 116.701 163.807 116.274 165.436 115.597C166.795 115.034 167.962 114.136 169.307 113.545C169.983 113.246 170.658 112.961 171.32 112.64C174.493 111.094 178.278 108.857 179.53 105.344C180.334 103.086 179.516 100.898 178.065 99.1169L178.378 99.8721C178.349 98.3046 177.994 96.673 177.339 95.2551C176.137 92.6474 173.696 91.5217 170.915 92.1415L172.266 93.1746C171.96 90.4315 170.566 87.6741 168.282 86.0924C166.945 85.1661 165.081 84.5605 163.451 84.8313C161.972 85.0735 160.534 85.6221 159.197 86.2848C156.351 87.6955 154.01 89.8758 152.132 92.4194L154.081 92.6759C153.534 88.6574 151.285 84.3468 147.778 82.2022C146.497 81.4184 144.904 80.7843 143.381 80.9054C141.631 81.0479 140.023 82.0881 139.162 83.62C137.54 86.5128 139.233 89.8188 140.806 92.341C141.417 93.3243 142.086 94.2577 142.798 95.1697C143.189 95.6826 143.666 96.1386 143.957 96.7158C144.761 98.2833 145.053 100.1 145.053 101.846C145.053 103.221 147.187 103.221 147.187 101.846C147.187 99.2808 146.647 96.5661 145.01 94.5426C143.253 92.3766 141.19 89.6691 140.663 86.8405C140.393 85.4013 141.161 83.905 142.492 83.2994C143.822 82.6938 145.174 83.1854 146.348 83.8266C148.454 84.9809 149.898 86.9901 150.844 89.1561C151.406 90.4386 151.84 91.8423 152.032 93.2316C152.175 94.2576 153.512 94.1223 153.982 93.4881C156.308 90.3389 159.666 87.7953 163.544 86.9759C163.715 86.9403 163.885 86.9118 164.056 86.8833C164.355 86.8263 163.836 86.8619 164.042 86.8833C164.938 86.983 165.792 87.1184 166.596 87.553C167.934 88.2726 168.873 89.4981 169.47 90.8733C169.712 91.429 169.89 92.0204 170.025 92.6118C170.068 92.8041 170.104 92.9965 170.139 93.1889C170.196 93.481 170.153 93.2673 170.139 93.1746C170.217 93.88 170.758 94.3645 171.491 94.2078C173.44 93.7803 174.828 94.678 175.56 96.4735C176.073 97.7275 176.08 98.6894 176.251 99.865C176.336 100.471 176.756 100.834 177.069 101.34C177.382 101.846 177.645 102.43 177.716 103.043C177.837 104.019 177.489 104.945 176.969 105.75C175.703 107.724 173.504 109.078 171.484 110.168C170.58 110.652 169.655 111.101 168.716 111.5C167.243 112.134 165.721 113.267 164.106 113.837C162.953 114.243 161.751 114.5 160.541 114.621C160.15 114.657 159.809 114.664 159.496 114.956C158.891 115.504 158.485 116.545 158.051 117.243C157.738 117.756 157.319 118.768 156.828 119.11C155.995 119.694 154.679 118.796 154.003 118.34C152.836 117.564 151.812 116.573 150.844 115.561C149.549 114.208 148.255 112.84 146.981 111.465C145.43 109.797 143.054 106.833 144.363 104.568C144.69 104.005 145.153 103.584 145.672 103.257C145.892 103.121 146.12 103.007 146.348 102.893C146.547 102.793 146.099 102.979 146.405 102.872C147.692 102.423 147.138 100.357 145.836 100.813H145.821Z" fill="#E6E6E6"/>
<path d="M149.684 105.522C149.684 105.522 147.564 104.211 146.099 101.846L149.684 105.522Z" fill="#F4F4F4"/>
<path d="M150.225 104.603C150.104 104.532 149.99 104.446 149.884 104.368C149.827 104.325 149.763 104.283 149.706 104.24C149.67 104.211 149.642 104.19 149.606 104.161C149.926 104.404 149.763 104.283 149.692 104.226C149.528 104.097 149.364 103.962 149.201 103.819C148.795 103.463 148.411 103.086 148.055 102.687C147.956 102.573 147.856 102.459 147.756 102.337C147.707 102.273 147.657 102.216 147.607 102.152C147.586 102.124 147.557 102.088 147.536 102.06C147.643 102.195 147.657 102.223 147.593 102.131C147.394 101.86 147.201 101.589 147.024 101.304C146.732 100.827 146.056 100.599 145.565 100.92C145.074 101.24 144.868 101.874 145.181 102.38C146.127 103.898 147.394 105.209 148.852 106.242C148.952 106.313 149.044 106.377 149.144 106.441C149.62 106.734 150.339 106.563 150.602 106.057C150.866 105.551 150.73 104.91 150.218 104.596L150.225 104.603Z" fill="#E6E6E6"/>
<path d="M160.242 115.704C160.242 115.704 159.389 115.911 157.717 112.676L160.242 115.704Z" fill="#F4F4F4"/>
<path d="M159.958 114.678L160.243 114.642C160.243 114.642 160.193 114.642 160.171 114.642L160.456 114.678C160.399 114.671 160.342 114.649 160.292 114.628L160.548 114.735C160.435 114.685 160.328 114.621 160.228 114.543L160.442 114.706C160.164 114.493 159.93 114.222 159.716 113.944L159.88 114.158C159.396 113.531 159.005 112.84 158.642 112.141C158.386 111.643 157.653 111.457 157.183 111.757C156.678 112.084 156.522 112.69 156.799 113.217C157.283 114.158 157.831 115.105 158.563 115.875C158.905 116.238 159.346 116.602 159.844 116.723C160.086 116.78 160.285 116.787 160.527 116.73C161.075 116.602 161.445 115.946 161.274 115.412C161.089 114.842 160.548 114.528 159.958 114.664V114.678Z" fill="#E6E6E6"/>
<path d="M167.749 113.018C167.749 113.018 162 111.664 162.697 106.969L167.749 113.018Z" fill="#F4F4F4"/>
<path d="M168.033 111.985C167.855 111.942 167.677 111.885 167.5 111.828C167.307 111.764 167.115 111.693 166.923 111.614C166.703 111.529 167.03 111.664 166.987 111.643C166.93 111.614 166.866 111.593 166.809 111.564C166.681 111.507 166.56 111.45 166.439 111.386C166.183 111.258 165.941 111.115 165.7 110.966C165.571 110.887 165.451 110.802 165.33 110.709C165.294 110.681 165.258 110.645 165.223 110.631C165.23 110.631 165.436 110.802 165.308 110.695C165.237 110.638 165.166 110.581 165.095 110.517C164.853 110.31 164.639 110.082 164.426 109.84C164.248 109.633 164.519 109.975 164.419 109.833C164.369 109.762 164.319 109.69 164.27 109.619C164.177 109.47 164.085 109.32 164.006 109.163C163.992 109.128 163.971 109.092 163.956 109.056C163.85 108.843 164.006 109.192 163.971 109.092C163.942 109.006 163.907 108.921 163.878 108.835C163.814 108.636 163.771 108.429 163.729 108.223C163.693 108.045 163.743 108.294 163.736 108.315C163.736 108.258 163.722 108.173 163.715 108.116C163.707 108.002 163.7 107.888 163.7 107.774C163.7 107.667 163.7 107.56 163.707 107.453C163.707 107.382 163.764 106.94 163.722 107.254C163.8 106.705 163.587 106.078 162.975 105.936C162.47 105.822 161.744 106.092 161.658 106.684C161.516 107.667 161.523 108.664 161.886 109.598C162.192 110.41 162.654 111.13 163.273 111.742C164.234 112.697 165.451 113.353 166.71 113.809C166.952 113.894 167.201 113.98 167.457 114.044C167.998 114.172 168.638 113.873 168.773 113.296C168.908 112.719 168.609 112.12 168.026 111.978L168.033 111.985Z" fill="#E6E6E6"/>
<path d="M177.304 99.8793C177.304 99.8793 161.822 114.45 160.328 102.558L177.304 99.8793Z" fill="#F4F4F4"/>
<path d="M176.55 99.124C175.034 100.549 173.426 101.81 171.733 102.979C170.374 103.912 168.944 104.81 167.414 105.444C166.162 105.964 164.732 106.349 163.644 106.071C163.117 105.936 162.64 105.629 162.313 105.173C161.772 104.425 161.531 103.463 161.41 102.558C161.331 101.981 160.976 101.497 160.342 101.49C159.823 101.49 159.197 101.988 159.275 102.558C159.531 104.482 160.122 106.513 161.858 107.61C163.267 108.501 165.045 108.408 166.589 107.988C170.075 107.047 173.184 104.717 175.945 102.473C176.67 101.881 177.389 101.283 178.065 100.642C179.068 99.7011 177.56 98.1906 176.557 99.1311L176.55 99.124Z" fill="#E6E6E6"/>
<path d="M171.192 93.1746C171.192 93.1746 163.351 105.907 156.891 101.554C150.431 97.2003 160.698 91.6641 160.698 91.6641" fill="#F4F4F4"/>
<path d="M170.274 92.6331C169.613 93.709 168.851 94.7207 168.111 95.6256C166.61 97.4639 164.903 99.2665 162.825 100.456C160.748 101.646 158.692 101.832 156.87 100.207C156.5 99.8793 156.088 99.3876 155.952 99.0242C155.91 98.9174 155.881 98.8034 155.853 98.6894C155.803 98.4827 155.824 98.6324 155.817 98.4756C155.803 98.1906 155.817 98.0909 155.846 97.9341C156.045 97.0221 156.607 96.2597 157.29 95.5472C158.443 94.3431 159.737 93.3955 161.224 92.5904C162.434 91.9349 161.36 90.0895 160.15 90.745C157.048 92.4194 151.769 96.4878 154.33 100.513C155.945 103.057 159.161 104.09 161.971 103.164C164.782 102.238 166.866 100.271 168.702 98.2049C169.947 96.8084 171.121 95.305 172.11 93.709C172.835 92.5334 170.986 91.4646 170.267 92.6331H170.274Z" fill="#E6E6E6"/>
<path d="M30.984 138.853C28.6717 141.368 23.3998 148.158 26.6156 154.884C27.2274 156.167 28.4938 157.193 30.1017 157.506C31.546 157.784 33.3176 157.599 34.648 155.732C34.648 155.732 38.1982 159.459 41.7484 158.718C41.7484 158.718 47.1413 158.44 51.7444 159.587C51.8796 159.622 52.0148 159.658 52.1429 159.694C56.5183 160.876 60.6733 159.003 59.0512 155.725C58.8804 155.376 59.0938 154.977 59.5349 154.891C60.9721 154.614 63.4551 153.58 62.1602 149.776C62.1602 149.776 64.4156 149.776 65.0701 147.617C65.7247 145.458 64.4369 143.392 62.1958 142.387C59.9547 141.382 56.81 140.406 53.2883 140.834C53.2883 140.834 59.4994 138.597 55.0598 135.611C52.1713 133.673 49.2828 134.571 47.618 135.44C46.2662 136.146 44.9429 136.879 43.5697 137.549C42.0401 138.297 40.0551 139.359 38.2551 140.599C38.2551 140.599 36.9887 138.176 33.9934 137.799C32.8409 137.656 31.6954 138.098 30.984 138.874V138.853Z" fill="#F4F4F4"/>
<path d="M30.2299 138.098C27.0141 141.618 24.154 146.356 24.5738 151.308C24.8086 154.051 25.89 156.929 28.5509 158.112C31.2118 159.295 33.8655 158.525 35.573 156.267L33.894 156.48C35.3952 158.048 37.5082 159.416 39.6639 159.765C40.6955 159.936 41.5137 159.765 42.4813 159.751C43.8473 159.722 45.2204 159.765 46.5865 159.865C48.422 160 50.2078 160.299 51.9936 160.741C53.6299 161.147 55.3944 161.261 57.0378 160.812C58.2687 160.477 59.4995 159.779 60.1042 158.611C60.3746 158.083 60.4955 157.478 60.46 156.894C60.4386 156.573 60.3746 156.245 60.2821 155.939C60.2608 155.86 60.1114 155.39 60.0616 155.383L59.8054 155.91C59.8837 155.896 59.9548 155.882 60.0331 155.86C61.0291 155.868 62.2813 154.877 62.8291 154.122C63.8252 152.754 63.6687 151.008 63.1778 149.476L62.1461 150.83C65.6394 150.787 67.1904 146.883 65.611 144.047C64.5793 142.188 62.6513 141.311 60.7303 140.656C58.3398 139.836 55.7928 139.48 53.2742 139.751L53.5588 141.853C55.4797 141.154 58.3185 139.494 57.607 137.036C57.0023 134.949 54.3058 133.716 52.3493 133.452C49.9872 133.139 47.9525 134.037 45.9177 135.112C43.1501 136.58 40.3042 137.898 37.7074 139.658L39.1659 140.043C37.5153 136.958 32.8766 135.447 30.2228 138.098C29.2481 139.074 30.7564 140.584 31.7311 139.608C33.4529 137.884 36.377 139.352 37.3232 141.119C37.5793 141.603 38.3193 141.817 38.7817 141.504C41.2078 139.858 43.8402 138.632 46.4228 137.264C48.5145 136.153 50.6204 134.984 53.0465 135.782C53.8789 136.06 55.2236 136.68 55.5509 137.592C55.6647 137.913 55.4513 138.205 55.124 138.525C54.7042 138.931 54.1849 139.224 53.6655 139.487C53.5446 139.544 52.9754 139.801 53.2244 139.694C53.1461 139.729 53.0679 139.758 52.9896 139.786C51.9438 140.164 51.9936 142.024 53.2742 141.888C55.1951 141.682 57.0948 141.846 58.9659 142.351C60.4386 142.75 62.1461 143.249 63.2204 144.382C64.0884 145.294 64.5509 146.847 63.7114 147.945C63.4481 148.287 63.071 148.493 62.6584 148.607C62.5801 148.629 62.1106 148.721 62.3525 148.686C62.2813 148.693 62.2102 148.7 62.1461 148.7C61.4774 148.707 60.9011 149.377 61.1145 150.054C61.4204 151.008 61.7264 152.248 60.9438 153.067C60.3959 153.637 59.6845 153.666 58.9944 153.944C58.3612 154.2 57.8845 154.799 57.9058 155.511C57.9272 156.124 58.411 156.637 58.3185 157.271C58.1833 158.226 57.045 158.639 56.241 158.832C54.8181 159.166 53.4023 158.91 52.0078 158.568C50.3643 158.162 48.6782 157.934 46.992 157.784C45.0355 157.62 43.0789 157.578 41.1224 157.741C38.988 157.92 36.8038 156.473 35.3809 154.991C34.8544 154.45 34.1074 154.678 33.7019 155.205C32.4497 156.865 30.1019 156.943 28.5224 155.654C26.8291 154.272 26.5019 151.479 26.6868 149.441C27.0284 145.729 29.2552 142.309 31.7098 139.623C32.6347 138.611 31.1335 137.093 30.2015 138.112L30.2299 138.098Z" fill="#E6E6E6"/>
<path d="M34.6481 155.725C34.6481 155.725 33.7588 154.236 33.7588 151.251L34.6481 155.725Z" fill="#F4F4F4"/>
<path d="M35.573 155.191C35.5232 155.105 35.4806 155.013 35.4379 154.913C35.4307 154.891 35.4165 154.87 35.4094 154.849C35.3525 154.713 35.5304 155.134 35.4734 155.005C35.445 154.934 35.4165 154.87 35.3952 154.799C35.3383 154.642 35.2885 154.485 35.2387 154.329C35.1106 153.887 35.011 153.431 34.9398 152.975C34.9256 152.896 34.9256 152.69 34.9398 152.996C34.9398 152.932 34.9256 152.861 34.9185 152.79C34.8972 152.626 34.8829 152.455 34.8687 152.284C34.8402 151.935 34.8331 151.593 34.8331 151.243C34.8331 150.688 34.3422 150.146 33.7659 150.175C33.1896 150.203 32.6987 150.645 32.6987 151.243C32.6987 152.462 32.8339 153.709 33.1825 154.884C33.3177 155.347 33.4885 155.839 33.7304 156.259C34.0149 156.744 34.7051 156.958 35.1888 156.644C35.6726 156.331 35.879 155.697 35.573 155.184V155.191Z" fill="#E6E6E6"/>
<path d="M38.2552 140.577C38.2552 140.577 36.4268 141.561 36.4268 145.287L38.2552 140.577Z" fill="#F4F4F4"/>
<path d="M37.7146 139.658C37.3944 139.829 37.1027 140.114 36.868 140.392C36.2561 141.126 35.8506 141.988 35.6229 142.914C35.4308 143.691 35.3597 144.496 35.3525 145.294C35.3525 145.85 35.8434 146.391 36.4197 146.363C36.996 146.334 37.4869 145.893 37.4869 145.294C37.4869 144.966 37.5012 144.639 37.5296 144.311C37.5296 144.24 37.5438 144.168 37.551 144.097C37.5652 143.976 37.5367 144.211 37.5367 144.211C37.5367 144.175 37.5438 144.147 37.551 144.111C37.5723 143.969 37.6008 143.833 37.6292 143.698C37.679 143.463 37.7431 143.221 37.8213 142.993C37.8569 142.893 37.8925 142.793 37.928 142.693C37.9992 142.508 37.8711 142.822 37.8925 142.765C37.9138 142.715 37.9351 142.665 37.9636 142.615C38.0419 142.451 38.1201 142.294 38.2197 142.145C38.2624 142.074 38.3051 142.009 38.3549 141.938C38.3763 141.91 38.3976 141.881 38.4189 141.853C38.4972 141.739 38.2268 142.088 38.3407 141.952C38.4759 141.789 38.6182 141.639 38.7818 141.504C38.9454 141.368 38.547 141.667 38.668 141.589C38.6893 141.575 38.7106 141.561 38.732 141.539C38.7533 141.525 38.7747 141.511 38.796 141.504C39.2869 141.24 39.4861 140.513 39.1802 140.043C38.86 139.544 38.2482 139.373 37.7217 139.658H37.7146Z" fill="#E6E6E6"/>
<path d="M58.6099 154.984C58.6099 154.984 57.7206 152.747 54.1704 151.999L58.6099 154.984Z" fill="#F4F4F4"/>
<path d="M59.6417 154.699C59.1152 153.388 57.9413 152.369 56.7034 151.756C55.9919 151.4 55.2378 151.137 54.4623 150.973C53.9145 150.859 53.2812 151.137 53.1461 151.721C53.0251 152.255 53.3097 152.911 53.8931 153.039C54.2133 153.11 54.5263 153.189 54.8322 153.288C54.9674 153.331 55.1026 153.381 55.2378 153.431C55.2947 153.452 55.3516 153.481 55.4156 153.502C55.4014 153.502 55.1737 153.395 55.3303 153.466C55.3658 153.481 55.4014 153.502 55.437 153.516C55.6646 153.623 55.8923 153.744 56.1058 153.873C56.1982 153.93 56.2979 153.994 56.3903 154.051C56.4615 154.101 56.6251 154.172 56.6678 154.25C56.6322 154.193 56.4544 154.086 56.5967 154.193C56.6322 154.222 56.6678 154.25 56.6963 154.279C56.7674 154.343 56.8457 154.407 56.9168 154.478C57.0378 154.592 57.1516 154.713 57.2654 154.842C57.3081 154.891 57.3579 154.948 57.4006 155.005C57.4931 155.119 57.2299 154.77 57.3081 154.884C57.3295 154.913 57.3508 154.941 57.3722 154.977C57.4362 155.062 57.4931 155.155 57.5429 155.241C57.6212 155.376 57.7919 155.782 57.5856 155.276C57.6923 155.547 57.8204 155.761 58.0765 155.917C58.3042 156.053 58.6457 156.11 58.9018 156.024C59.3998 155.86 59.8694 155.262 59.6488 154.706L59.6417 154.699Z" fill="#E6E6E6"/>
<path d="M62.1606 149.761C62.1606 149.761 59.8483 147.695 57.4507 147.239L62.1606 149.761Z" fill="#F4F4F4"/>
<path d="M62.9146 149.006C62.3952 148.543 61.8261 148.13 61.2427 147.752C60.1826 147.061 58.9873 146.455 57.7352 146.213C57.1873 146.106 56.5541 146.37 56.419 146.961C56.298 147.489 56.5755 148.158 57.166 148.279C57.4648 148.336 57.7565 148.415 58.0482 148.515C58.1691 148.557 58.3968 148.6 58.4964 148.686L58.3755 148.636C58.4182 148.657 58.468 148.671 58.5107 148.693C58.5747 148.721 58.6458 148.75 58.7099 148.785C59.215 149.02 59.6988 149.305 60.1684 149.612C60.3676 149.74 60.5668 149.883 60.7589 150.018C60.8371 150.075 60.9154 150.132 60.9937 150.196C61.0577 150.246 61.1929 150.36 60.9154 150.139C60.9439 150.168 60.9794 150.189 61.0079 150.21C61.1431 150.317 61.2711 150.424 61.3992 150.531C61.819 150.901 62.502 150.973 62.9075 150.531C63.2775 150.125 63.3557 149.419 62.9075 149.02L62.9146 149.006Z" fill="#E6E6E6"/>
<path d="M65.5186 118.882C66.7636 120.371 68.5352 121.561 70.1431 122.608C73.0743 124.518 76.347 125.992 79.7549 126.798C87.6024 128.643 95.9265 126.619 101.981 121.283C103.703 119.765 105.24 117.977 106.449 116.017C107.538 114.258 104.77 112.647 103.681 114.4C103.347 114.934 102.991 115.447 102.614 115.953C102.365 116.281 102.828 115.69 102.557 116.017C102.486 116.103 102.422 116.188 102.351 116.274C102.187 116.473 102.017 116.673 101.846 116.872C101.455 117.314 101.049 117.742 100.629 118.155C98.4949 120.25 95.9336 121.924 93.102 122.95C86.1225 125.479 78.702 124.119 72.4767 120.3C70.6482 119.181 69.147 118.262 67.7739 116.616C67.219 115.953 66.0806 116.039 65.5115 116.616C64.8569 117.271 64.9565 118.219 65.5115 118.882H65.5186Z" fill="#1A1A1A"/>
<path d="M62.1535 106.905C58.9092 104.005 56.6895 97.984 56.6895 90.6239C56.6895 89.4269 62.3812 90.9802 61.6697 87.4177C61.1646 84.8954 57.28 83.3137 57.6286 81.8958C59.2223 75.4762 62.6586 71.0302 66.6499 71.0302C72.1495 71.0302 76.6104 79.4804 76.6104 89.9114C76.6104 97.2715 74.3906 103.648 71.1464 106.755L62.1535 106.905Z" fill="#1A1A1A"/>
<path d="M74.3054 107.154C73.3947 106.577 72.4342 106.107 71.431 105.722C71.1892 105.629 70.8263 105.7 70.6057 105.829C70.3852 105.957 70.1718 106.213 70.1148 106.47C70.0508 106.741 70.065 107.047 70.2216 107.296C70.3781 107.546 70.5844 107.681 70.8619 107.788C71.0184 107.845 71.1678 107.909 71.3243 107.973L71.0682 107.866C71.8152 108.187 72.5338 108.572 73.2239 109.006C73.6935 109.306 74.4192 109.12 74.6824 108.622C74.9599 108.094 74.8034 107.482 74.2982 107.161L74.3054 107.154Z" fill="#1A1A1A"/>
<path d="M61.8691 105.871C60.7734 106.327 59.6991 106.869 58.7813 107.631C58.5821 107.795 58.4683 108.137 58.4683 108.387C58.4683 108.65 58.5821 108.964 58.7813 109.142C58.9805 109.32 59.2509 109.47 59.5355 109.455L59.82 109.42C59.9979 109.37 60.1544 109.277 60.2896 109.142C60.3109 109.128 60.3252 109.113 60.3465 109.099L60.1331 109.263C60.8801 108.686 61.7339 108.237 62.6019 107.866L62.3457 107.973C62.3457 107.973 62.4098 107.945 62.4382 107.938C62.7086 107.824 62.922 107.71 63.0785 107.446C63.2137 107.218 63.2706 106.876 63.1853 106.62C63.0999 106.363 62.9434 106.114 62.6944 105.978C62.4453 105.843 62.1323 105.765 61.8691 105.871Z" fill="#1A1A1A"/>
<path d="M60.2895 109.142C60.4105 109.042 60.1899 109.22 60.1686 109.234C60.2469 109.185 60.318 109.128 60.3892 109.071C60.6524 108.892 60.9227 108.714 61.2002 108.558C62.0682 108.052 62.9575 107.681 63.9251 107.41C67.1694 106.513 70.4137 107.232 73.2311 108.999C74.3978 109.733 75.4722 107.881 74.3054 107.154C71.0611 105.123 67.2405 104.325 63.5125 105.309C61.8334 105.75 60.1401 106.52 58.7813 107.631C58.333 108.002 58.4042 108.757 58.7813 109.142C59.2152 109.591 59.8484 109.505 60.2895 109.142Z" fill="#1A1A1A"/>
<path d="M100.572 106.805C97.3282 103.905 95.1084 97.8843 95.1084 90.5241C95.1084 89.3271 100.8 90.8804 100.089 87.3179C99.5835 84.7956 95.6989 83.2139 96.0475 81.796C97.6412 75.3764 101.078 70.9304 105.069 70.9304C110.568 70.9304 115.029 79.3806 115.029 89.8116C115.029 97.1718 112.81 103.549 109.565 106.655L100.572 106.805Z" fill="#1A1A1A"/>
<path d="M112.724 107.054C111.814 106.477 110.853 106.007 109.85 105.622C109.608 105.529 109.245 105.601 109.025 105.729C108.804 105.857 108.591 106.114 108.534 106.37C108.47 106.641 108.484 106.947 108.641 107.197C108.797 107.446 109.003 107.581 109.281 107.688C109.437 107.745 109.587 107.809 109.743 107.873L109.487 107.767C110.234 108.087 110.953 108.472 111.643 108.907C112.112 109.206 112.838 109.021 113.101 108.522C113.379 107.995 113.222 107.382 112.717 107.061L112.724 107.054Z" fill="#1A1A1A"/>
<path d="M100.288 105.772C99.1924 106.228 98.118 106.769 97.2003 107.532C97.001 107.695 96.8872 108.037 96.8872 108.287C96.8872 108.55 97.001 108.864 97.2003 109.042C97.3995 109.22 97.6698 109.37 97.9544 109.356L98.239 109.32C98.4169 109.27 98.5734 109.177 98.7086 109.042C98.7299 109.028 98.7441 109.014 98.7655 108.999L98.552 109.163C99.2991 108.586 100.153 108.137 101.021 107.767L100.765 107.874C100.765 107.874 100.829 107.845 100.857 107.838C101.128 107.724 101.341 107.61 101.497 107.346C101.633 107.118 101.69 106.776 101.604 106.52C101.519 106.263 101.362 106.014 101.113 105.879C100.864 105.743 100.551 105.665 100.288 105.772Z" fill="#1A1A1A"/>
<path d="M98.7085 109.042C98.8295 108.942 98.6089 109.12 98.5876 109.135C98.6658 109.085 98.737 109.028 98.8081 108.971C99.0713 108.793 99.3417 108.615 99.6192 108.458C100.487 107.952 101.376 107.581 102.344 107.311C105.588 106.413 108.833 107.133 111.65 108.9C112.817 109.633 113.891 107.781 112.724 107.054C109.48 105.024 105.659 104.226 101.931 105.209C100.252 105.651 98.5591 106.42 97.2002 107.532C96.752 107.902 96.8231 108.657 97.2002 109.042C97.6342 109.491 98.2674 109.405 98.7085 109.042Z" fill="#1A1A1A"/>
</g>
<g filter="url(#filter0_d_150_109)">
<path fill-rule="evenodd" clip-rule="evenodd" d="M217.702 91C252.212 91 280.188 70.629 280.188 45.5C280.188 20.371 252.212 0 217.702 0C183.191 0 155.215 20.371 155.215 45.5C155.215 49.6464 155.977 53.6633 157.404 57.4805L140.635 66.6388C139.467 67.2768 140.03 69.0581 141.352 68.9094L161.711 66.6204C161.899 66.5993 162.069 66.5378 162.216 66.4465C172.624 81.0349 193.565 91 217.702 91Z" fill="#F4F4F4"/>
</g>
<path d="M172.461 39.5981C172.461 40.4196 172.274 41.1563 171.899 41.8079C171.523 42.4557 171.049 42.9533 170.477 43.3009C170.046 43.5616 169.574 43.7433 169.061 43.846C168.547 43.9487 167.939 44 167.236 44H164.126V35.1785H167.325C168.044 35.1785 168.664 35.2397 169.185 35.3621C169.707 35.4806 170.145 35.6504 170.5 35.8716C171.109 36.2429 171.587 36.7445 171.934 37.3764C172.286 38.0044 172.461 38.745 172.461 39.5981ZM170.109 39.5803C170.109 38.9997 170.003 38.5041 169.789 38.0933C169.58 37.6786 169.246 37.3547 168.788 37.1217C168.555 37.0071 168.316 36.9301 168.071 36.8906C167.83 36.8472 167.465 36.8255 166.975 36.8255H166.401V42.3471H166.975C167.516 42.3471 167.913 42.3234 168.166 42.276C168.419 42.2246 168.666 42.1338 168.907 42.0035C169.321 41.7665 169.626 41.4505 169.819 41.0555C170.013 40.6566 170.109 40.1649 170.109 39.5803ZM181.923 40.8067C181.923 41.8968 181.591 42.7322 180.927 43.3128C180.264 43.8934 179.286 44.1837 177.995 44.1837C176.703 44.1837 175.726 43.8934 175.062 43.3128C174.403 42.7322 174.073 41.8988 174.073 40.8126V35.1785H176.36V40.6823C176.36 41.2945 176.488 41.7507 176.745 42.0508C177.002 42.351 177.418 42.5011 177.995 42.5011C178.564 42.5011 178.978 42.3569 179.239 42.0686C179.504 41.7803 179.636 41.3182 179.636 40.6823V35.1785H181.923V40.8067ZM194.583 44H188.203V35.1785H194.583V36.8847H190.466V38.4073H194.287V40.1135H190.466V42.2938H194.583V44ZM201.444 37.88C201.444 37.6588 201.399 37.4692 201.308 37.3113C201.217 37.1533 201.061 37.0289 200.84 36.938C200.686 36.8748 200.506 36.8373 200.301 36.8255C200.095 36.8097 199.856 36.8018 199.584 36.8018H198.76V39.1775H199.459C199.823 39.1775 200.127 39.1597 200.372 39.1242C200.616 39.0886 200.822 39.0076 200.988 38.8813C201.146 38.7588 201.26 38.6245 201.331 38.4784C201.406 38.3283 201.444 38.1288 201.444 37.88ZM204.993 44H202.214L199.809 40.7652H198.76V44H196.497V35.1785H200.312C200.834 35.1785 201.282 35.2081 201.657 35.2673C202.032 35.3266 202.384 35.4549 202.712 35.6524C203.044 35.8499 203.306 36.1066 203.5 36.4226C203.697 36.7346 203.796 37.1276 203.796 37.6016C203.796 38.2533 203.644 38.7845 203.34 39.1952C203.04 39.606 202.609 39.9477 202.048 40.2202L204.993 44ZM216.516 44H210.135V35.1785H216.516V36.8847H212.398V38.4073H216.22V40.1135H212.398V42.2938H216.516V44ZM226.451 44H224.259L220.515 37.9452V44H218.429V35.1785H221.149L224.366 40.232V35.1785H226.451V44ZM240.759 44H238.484V40.1135H235.125V44H232.85V35.1785H235.125V38.4073H238.484V35.1785H240.759V44ZM249.397 44H243.016V35.1785H249.397V36.8847H245.279V38.4073H249.1V40.1135H245.279V42.2938H249.397V44ZM257.673 44H251.31V35.1785H253.585V42.2938H257.673V44ZM265.95 36.8847H263.195V44H260.92V36.8847H258.165V35.1785H265.95V36.8847ZM269.872 35.1785L269.599 41.4584H267.668L267.395 35.1785H269.872ZM269.83 44H267.437V42.4359H269.83V44Z" fill="#1A1A1A"/>
<path d="M174.146 60V52.3396H171.284V51.3147H178.169V52.3396H175.295V60H174.146ZM181.972 59.2239C181.577 59.5596 181.196 59.7966 180.829 59.9348C180.465 60.0731 180.074 60.1422 179.656 60.1422C178.964 60.1422 178.433 59.9743 178.062 59.6386C177.691 59.2989 177.505 58.8664 177.505 58.3411C177.505 58.0331 177.574 57.7526 177.712 57.4999C177.855 57.2431 178.038 57.0378 178.263 56.8837C178.492 56.7297 178.749 56.6132 179.034 56.5342C179.243 56.4789 179.559 56.4256 179.982 56.3742C180.843 56.2715 181.476 56.1491 181.883 56.0069C181.887 55.8608 181.889 55.7679 181.889 55.7285C181.889 55.294 181.788 54.9879 181.587 54.8102C181.315 54.5692 180.91 54.4488 180.373 54.4488C179.871 54.4488 179.5 54.5376 179.259 54.7154C179.022 54.8891 178.846 55.1992 178.731 55.6455L177.689 55.5033C177.784 55.057 177.94 54.6976 178.157 54.4251C178.374 54.1486 178.688 53.9373 179.099 53.7911C179.51 53.6411 179.985 53.566 180.527 53.566C181.064 53.566 181.5 53.6292 181.836 53.7556C182.172 53.882 182.418 54.0419 182.576 54.2355C182.734 54.4251 182.845 54.666 182.908 54.9583C182.944 55.14 182.962 55.4678 182.962 55.9417V57.3636C182.962 58.355 182.983 58.983 183.027 59.2476C183.074 59.5083 183.165 59.7591 183.299 60H182.185C182.075 59.7788 182.004 59.5201 181.972 59.2239ZM181.883 56.8423C181.496 57.0002 180.916 57.1345 180.141 57.2451C179.703 57.3083 179.393 57.3794 179.211 57.4584C179.03 57.5374 178.889 57.6539 178.791 57.8079C178.692 57.958 178.643 58.1259 178.643 58.3115C178.643 58.5959 178.749 58.8329 178.962 59.0225C179.18 59.212 179.496 59.3068 179.91 59.3068C180.321 59.3068 180.687 59.218 181.006 59.0402C181.326 58.8586 181.561 58.6117 181.711 58.2997C181.826 58.0587 181.883 57.7033 181.883 57.2333V56.8423ZM184.626 60V51.3147H185.693V56.2676L188.217 53.7082H189.597L187.192 56.0424L189.84 60H188.525L186.445 56.783L185.693 57.5058V60H184.626ZM194.319 60V54.5376H193.377V53.7082H194.319V53.0387C194.319 52.6161 194.356 52.3021 194.431 52.0967C194.534 51.8203 194.714 51.5971 194.97 51.4273C195.231 51.2535 195.594 51.1666 196.061 51.1666C196.361 51.1666 196.692 51.2021 197.056 51.2732L196.896 52.2034C196.675 52.1639 196.465 52.1441 196.268 52.1441C195.944 52.1441 195.715 52.2133 195.581 52.3515C195.446 52.4897 195.379 52.7484 195.379 53.1276V53.7082H196.606V54.5376H195.379V60H194.319ZM197.044 56.8541C197.044 55.689 197.368 54.826 198.016 54.2651C198.557 53.799 199.216 53.566 199.994 53.566C200.859 53.566 201.566 53.8504 202.115 54.4191C202.664 54.9839 202.939 55.766 202.939 56.7652C202.939 57.5749 202.816 58.2128 202.572 58.6788C202.331 59.141 201.977 59.5004 201.511 59.7571C201.049 60.0138 200.543 60.1422 199.994 60.1422C199.114 60.1422 198.401 59.8598 197.856 59.295C197.315 58.7302 197.044 57.9166 197.044 56.8541ZM198.14 56.8541C198.14 57.6598 198.316 58.2641 198.667 58.667C199.019 59.0659 199.461 59.2654 199.994 59.2654C200.524 59.2654 200.964 59.0639 201.316 58.6611C201.667 58.2582 201.843 57.644 201.843 56.8186C201.843 56.0405 201.665 55.452 201.31 55.0531C200.958 54.6502 200.52 54.4488 199.994 54.4488C199.461 54.4488 199.019 54.6482 198.667 55.0471C198.316 55.4461 198.14 56.0484 198.14 56.8541ZM204.183 60V53.7082H205.143V54.662C205.388 54.2157 205.613 53.9215 205.818 53.7793C206.027 53.6371 206.257 53.566 206.505 53.566C206.865 53.566 207.23 53.6806 207.601 53.9096L207.234 54.899C206.973 54.745 206.713 54.668 206.452 54.668C206.219 54.668 206.01 54.7391 205.824 54.8813C205.638 55.0195 205.506 55.213 205.427 55.4618C205.309 55.841 205.249 56.2557 205.249 56.706V60H204.183ZM215.694 60V59.2061C215.295 59.8302 214.709 60.1422 213.935 60.1422C213.433 60.1422 212.971 60.0039 212.548 59.7275C212.13 59.451 211.804 59.0659 211.571 58.5722C211.342 58.0745 211.227 57.5038 211.227 56.86C211.227 56.232 211.332 55.6633 211.541 55.1538C211.751 54.6403 212.065 54.2473 212.483 53.9748C212.902 53.7023 213.37 53.566 213.887 53.566C214.266 53.566 214.604 53.647 214.9 53.8089C215.197 53.9669 215.438 54.1743 215.623 54.431V51.3147H216.684V60H215.694ZM212.323 56.86C212.323 57.6658 212.493 58.2681 212.833 58.667C213.172 59.0659 213.573 59.2654 214.035 59.2654C214.501 59.2654 214.896 59.0758 215.22 58.6966C215.548 58.3135 215.712 57.7309 215.712 56.9489C215.712 56.0879 215.546 55.4559 215.214 55.0531C214.883 54.6502 214.474 54.4488 213.988 54.4488C213.514 54.4488 213.117 54.6423 212.797 55.0294C212.481 55.4164 212.323 56.0266 212.323 56.86ZM218.372 52.5411V51.3147H219.439V52.5411H218.372ZM218.372 60V53.7082H219.439V60H218.372ZM221.068 60V53.7082H222.028V54.6028C222.49 53.9116 223.157 53.566 224.03 53.566C224.409 53.566 224.757 53.6351 225.073 53.7734C225.393 53.9077 225.632 54.0854 225.79 54.3066C225.948 54.5278 226.058 54.7904 226.121 55.0945C226.161 55.292 226.181 55.6376 226.181 56.1313V60H225.114V56.1728C225.114 55.7383 225.073 55.4145 224.99 55.2012C224.907 54.9839 224.759 54.8121 224.545 54.6857C224.336 54.5554 224.089 54.4902 223.805 54.4902C223.351 54.4902 222.958 54.6344 222.626 54.9227C222.298 55.211 222.134 55.7581 222.134 56.5638V60H221.068ZM231.199 60V51.3147H232.265V54.431C232.763 53.8543 233.391 53.566 234.149 53.566C234.615 53.566 235.02 53.6588 235.364 53.8445C235.707 54.0262 235.952 54.2789 236.098 54.6028C236.248 54.9267 236.323 55.3967 236.323 56.0128V60H235.257V56.0128C235.257 55.4796 235.14 55.0926 234.907 54.8516C234.678 54.6067 234.352 54.4843 233.93 54.4843C233.614 54.4843 233.316 54.5673 233.035 54.7331C232.759 54.8951 232.561 55.1163 232.443 55.3967C232.324 55.6771 232.265 56.0642 232.265 56.5579V60H231.199ZM237.947 52.5529V51.3147H239.013V52.5529H237.947ZM236.596 62.4409L236.797 61.5344C237.011 61.5897 237.178 61.6174 237.301 61.6174C237.518 61.6174 237.68 61.5443 237.787 61.3982C237.893 61.256 237.947 60.8966 237.947 60.3199V53.7082H239.013V60.3436C239.013 61.1178 238.912 61.6569 238.711 61.961C238.454 62.356 238.028 62.5535 237.431 62.5535C237.143 62.5535 236.864 62.5159 236.596 62.4409ZM250.127 58.0745C249.93 58.7341 249.594 59.2436 249.12 59.6031C248.646 59.9625 248.058 60.1422 247.355 60.1422C246.853 60.1422 246.413 60.0474 246.034 59.8578C245.658 59.6682 245.319 59.372 245.015 58.9691C244.604 59.372 244.187 59.6682 243.764 59.8578C243.346 60.0474 242.894 60.1422 242.408 60.1422C241.728 60.1422 241.199 59.9684 240.82 59.6208C240.445 59.2693 240.257 58.8428 240.257 58.3411C240.257 58.0015 240.354 57.6835 240.547 57.3873C240.745 57.0871 241.017 56.86 241.365 56.706C241.717 56.552 242.275 56.4256 243.042 56.3268C243.634 56.2478 244.132 56.1511 244.535 56.0365C244.539 55.9378 244.541 55.8568 244.541 55.7936C244.541 55.296 244.436 54.9484 244.227 54.7509C244.021 54.5495 243.66 54.4488 243.142 54.4488C242.799 54.4488 242.508 54.4902 242.271 54.5732C242.035 54.6561 241.859 54.7746 241.744 54.9286C241.634 55.0787 241.541 55.3216 241.466 55.6574L240.429 55.5329C240.54 55.0708 240.698 54.7055 240.903 54.4369C241.112 54.1644 241.41 53.9511 241.798 53.7971C242.185 53.643 242.637 53.566 243.154 53.566C243.814 53.566 244.345 53.6648 244.748 53.8622C244.981 53.9768 245.176 54.1604 245.334 54.4132C245.587 54.1367 245.874 53.9274 246.193 53.7852C246.513 53.6391 246.9 53.566 247.355 53.566C247.995 53.566 248.524 53.722 248.942 54.034C249.361 54.3421 249.667 54.7509 249.861 55.2604C250.054 55.7699 250.151 56.2715 250.151 56.7652C250.151 56.8403 250.147 56.9607 250.139 57.1266H245.595C245.603 57.6954 245.672 58.1081 245.802 58.3648C245.937 58.6216 246.148 58.8368 246.436 59.0106C246.729 59.1804 247.049 59.2654 247.396 59.2654C247.803 59.2654 248.147 59.1488 248.427 58.9158C248.711 58.6828 248.907 58.355 249.014 57.9324L250.127 58.0745ZM245.595 56.2498H249.055C249 55.6258 248.822 55.1696 248.522 54.8813C248.222 54.5929 247.831 54.4488 247.349 54.4488C246.851 54.4488 246.442 54.6067 246.122 54.9227C245.806 55.2387 245.631 55.6811 245.595 56.2498ZM244.552 56.8423C244.24 56.9765 243.604 57.1207 242.645 57.2747C242.214 57.3419 241.912 57.4426 241.738 57.5769C241.505 57.7625 241.389 58.0054 241.389 58.3056C241.389 58.586 241.493 58.823 241.703 59.0165C241.912 59.2061 242.216 59.3009 242.615 59.3009C243.069 59.3009 243.464 59.1883 243.8 58.9632C244.14 58.7381 244.361 58.4577 244.464 58.1219C244.523 57.9166 244.552 57.49 244.552 56.8423ZM251.425 60V51.3147H252.491V60H251.425ZM254.15 62.4113V53.7082H255.122V54.5258C255.351 54.2059 255.609 53.9669 255.898 53.8089C256.186 53.647 256.536 53.566 256.946 53.566C257.484 53.566 257.958 53.7043 258.368 53.9807C258.779 54.2572 259.089 54.6482 259.298 55.1538C259.508 55.6554 259.612 56.2064 259.612 56.8067C259.612 57.4505 259.496 58.0311 259.263 58.5485C259.034 59.062 258.698 59.4569 258.256 59.7334C257.817 60.0059 257.355 60.1422 256.869 60.1422C256.514 60.1422 256.194 60.0671 255.91 59.9171C255.629 59.767 255.398 59.5774 255.216 59.3483V62.4113H254.15ZM255.116 56.8896C255.116 57.6993 255.28 58.2977 255.607 58.6848C255.935 59.0718 256.332 59.2654 256.798 59.2654C257.272 59.2654 257.677 59.0659 258.013 58.667C258.352 58.2641 258.522 57.6421 258.522 56.8008C258.522 55.999 258.356 55.3987 258.025 54.9997C257.697 54.6008 257.304 54.4014 256.846 54.4014C256.391 54.4014 255.989 54.6146 255.637 55.0412C255.29 55.4638 255.116 56.08 255.116 56.8896Z" fill="black"/>
<defs>
<filter id="filter0_d_150_109" x="140" y="0" width="140.188" height="93.4267" filterUnits="userSpaceOnUse" color-interpolation-filters="sRGB">
<feFlood flood-opacity="0" result="BackgroundImageFix"/>
<feColorMatrix in="SourceAlpha" type="matrix" values="0 0 0 0 0 0 0 0 0 0 0 0 0 0 0 0 0 0 127 0" result="hardAlpha"/>
<feOffset dy="2.42667"/>
<feComposite in2="hardAlpha" operator="out"/>
<feColorMatrix type="matrix" values="0 0 0 0 0 0 0 0 0 0 0 0 0 0 0 0 0 0 0.25 0"/>
<feBlend mode="normal" in2="BackgroundImageFix" result="effect1_dropShadow_150_109"/>
<feBlend mode="normal" in="SourceGraphic" in2="effect1_dropShadow_150_109" result="shape"/>
</filter>
<clipPath id="clip0_150_109">
<rect width="180" height="171" fill="white" transform="translate(0 46)"/>
</clipPath>
</defs>
</svg>
