<svg width="45" height="29" viewBox="0 0 45 29" fill="none" xmlns="http://www.w3.org/2000/svg">
<mask id="path-1-inside-1_34_474" fill="white">
<path d="M0 -1.90735e-06L22.5 29L45 -1.90735e-06H39.6873L37.2891 3.71795L22.5 22.7538L6.91154 2.82564L4.51338 -1.90735e-06L0 -1.90735e-06Z"/>
</mask>
<path d="M22.5 29L18.3916 32.1876L22.5 37.4829L26.6084 32.1876L22.5 29ZM0 -1.90735e-06V-5.2H-10.6161L-4.10844 3.18758L0 -1.90735e-06ZM45 -1.90735e-06L49.1084 3.18758L55.6161 -5.2H45V-1.90735e-06ZM4.51338 -1.90735e-06L8.47798 -3.36481L6.92043 -5.2H4.51338V-1.90735e-06ZM6.91154 2.82564L11.0073 -0.378204L10.9433 -0.459997L10.8761 -0.539173L6.91154 2.82564ZM39.6873 -1.90735e-06V-5.2H36.8536L35.3175 -2.81869L39.6873 -1.90735e-06ZM37.2891 3.71795L41.3955 6.90821L41.5353 6.72819L41.6589 6.53663L37.2891 3.71795ZM22.5 22.7538L18.4042 25.9577L22.514 31.2116L26.6064 25.9441L22.5 22.7538ZM26.6084 25.8124L4.10844 -3.18759L-4.10844 3.18758L18.3916 32.1876L26.6084 25.8124ZM40.8916 -3.18759L18.3916 25.8124L26.6084 32.1876L49.1084 3.18758L40.8916 -3.18759ZM0 5.2L4.51338 5.2V-5.2H0V5.2ZM10.8761 -0.539173L8.47798 -3.36481L0.548779 3.36481L2.94694 6.19045L10.8761 -0.539173ZM39.6873 5.2H45V-5.2H39.6873V5.2ZM35.3175 -2.81869L32.9193 0.899263L41.6589 6.53663L44.0571 2.81868L35.3175 -2.81869ZM33.1827 0.527685L18.3936 19.5636L26.6064 25.9441L41.3955 6.90821L33.1827 0.527685ZM26.5958 19.55L11.0073 -0.378204L2.81577 6.02948L18.4042 25.9577L26.5958 19.55Z" fill="#F4F4F4" mask="url(#path-1-inside-1_34_474)"/>
</svg>
