<?xml version="1.0" encoding="UTF-8"?><svg id="Layer_1" xmlns="http://www.w3.org/2000/svg" width="301" height="183" viewBox="0 0 301 183"><defs><style>.cls-1{fill:#fec2db;}.cls-2{fill:#fed1e4;}.cls-3{fill:#f4f4f4;}.cls-4{fill:#ccc;}.cls-5{fill:#986b7e;}.cls-6{fill:#fff;}.cls-7{fill:#e5a1bd;}.cls-8{fill:#feb3d2;}.cls-9{fill:#999;}</style></defs><path class="cls-8" d="M266.03,134.99H34.03V12.4c0-6.31,5.11-11.42,11.42-11.42h209.16c6.31,0,11.42,5.11,11.42,11.42v122.58Z"/><path class="cls-3" d="M266.03,134.24H37.51c-1.01,0-2.1-.12-3.1,0-.12.01-.26,0-.38,0l.75.75V13.84c0-3.11.51-6.07,2.68-8.51s5.38-3.6,8.71-3.6h11.08c7.26,0,14.52,0,21.78,0,9.77,0,19.54,0,29.31,0,11.11,0,22.22,0,33.32,0h112.31c3.52,0,6.82,1.25,9.05,4.09,3.15,4.02,2.26,10.2,2.26,15.02v114.14c0,.97,1.5.97,1.5,0v-11.47c0-9.26,0-18.53,0-27.79s0-22.8,0-34.21V13.5c0-3.46-.81-6.72-3.23-9.35s-5.91-3.92-9.5-3.92h-10.74c-7.27,0-14.53,0-21.8,0-9.81,0-19.63,0-29.44,0-11.22,0-22.45,0-33.67,0h-34.49c-10.63,0-21.27,0-31.9,0-8.64,0-17.27,0-25.91,0-5.5,0-11,0-16.5,0-1.22,0-2.44,0-3.65,0-3.86,0-7.5,1.47-9.96,4.53-3.48,4.33-2.7,10.22-2.7,15.42v114.8c0,.41.34.75.75.75h222.57c3.01,0,6.03.06,9.04,0,.13,0,.26,0,.38,0,.97,0,.97-1.5,0-1.5Z"/><rect class="cls-6" x="50.03" y="19.99" width="200" height="97"/><path class="cls-1" d="M287.74,181.99H13.26c-6.77,0-12.26-5.49-12.26-12.26h0s299,0,299,0h0c0,6.77-5.49,12.26-12.26,12.26Z"/><path class="cls-3" d="M287.74,181.24c-2.61,0-5.22,0-7.83,0-7.04,0-14.08,0-21.12,0h-31.07c-12.6,0-25.2,0-37.81,0h-41.06c-13.59,0-27.19,0-40.78,0-12.43,0-24.87,0-37.3,0-10.19,0-20.37,0-30.56,0-6.74,0-13.49,0-20.23,0-3.42,0-7.6.49-10.85-.76-4.41-1.69-7.39-6.04-7.39-10.76l-.75.75h294.49c1.31,0,2.7.14,4,0,.17-.02.34,0,.51,0l-.75-.75c0,6.36-5.24,11.41-11.51,11.51-.96.02-.97,1.52,0,1.5,7.09-.12,13.01-5.84,13.01-13.01,0-.41-.34-.75-.75-.75H13.14c-3.87,0-7.75-.06-11.63,0-.17,0-.34,0-.51,0-.41,0-.75.34-.75.75,0,7.22,5.98,12.93,13.1,13.01.95.01,1.9,0,2.85,0,5.5,0,10.99,0,16.49,0,9.32,0,18.65,0,27.97,0,12,0,24,0,35.99,0h40.41c13.89,0,27.77,0,41.66,0h39.18c11.18,0,22.35,0,33.53,0,8.09,0,16.18,0,24.27,0,3.85,0,7.7.06,11.55,0,.16,0,.33,0,.49,0,.97,0,.97-1.5,0-1.5Z"/><polygon class="cls-2" points="299.92 169.99 1.08 169.99 34.73 134.99 266.27 134.99 299.92 169.99"/><path class="cls-3" d="M299.92,169.24H5.58c-1.3,0-2.7-.15-4,0-.16.02-.34,0-.51,0l.53,1.28c8.21-8.54,16.41-17.07,24.62-25.61,2.11-2.19,4.22-4.39,6.33-6.58.18-.18,2.79-2.65,2.7-2.81.54.97-.94,0-.34.21.15.05.42,0,.58,0h24.75c12.7,0,25.39,0,38.09,0h46.35c15.75,0,31.5,0,47.24,0,13.59,0,27.18,0,40.76,0h32.88c.14,0,.42.06.55,0,.41-.18-.45.13-.35-.19-.1.34,2.61,2.71,2.86,2.98,9.49,9.87,18.97,19.73,28.46,29.6.77.8,1.54,1.6,2.3,2.4.67.7,1.73-.36,1.06-1.06-8.27-8.6-16.54-17.2-24.81-25.8l-6.26-6.51c-.8-.83-1.63-2.04-2.59-2.69-.82-.56-2.51-.22-3.44-.22h-107.04c-15.84,0-31.68,0-47.52,0-13.6,0-27.21,0-40.81,0h-32.64c-1.7,0-2.83,1.97-3.91,3.1-9.53,9.91-19.05,19.82-28.58,29.73-.77.8-1.54,1.6-2.3,2.4-.45.46-.13,1.28.53,1.28h286.72c3.87,0,7.75.06,11.62,0,.17,0,.34,0,.51,0,.97,0,.97-1.5,0-1.5Z"/><polygon class="cls-7" points="257 158.99 50 158.99 68 141.99 240 141.99 257 158.99"/><path class="cls-4" d="M172.22,108.99h-37.67c-1.88,0-3.47-1.41-3.7-3.28l-4.44-58.22c-.12-1.62,1.15-2.99,2.78-2.99h47.48c1.6,0,2.87,1.35,2.78,2.95l-3.53,58.32c-.25,1.85-1.83,3.22-3.69,3.22Z"/><rect class="cls-9" x="151.56" y="53.24" width="3.22" height="46.53" rx="1.61" ry="1.61"/><rect class="cls-9" x="164.55" y="53.24" width="3.22" height="46.53" rx="1.61" ry="1.61" transform="translate(5.21 -10.43) rotate(3.65)"/><rect class="cls-9" x="137.37" y="53.24" width="3.22" height="46.53" rx="1.61" ry="1.61" transform="translate(282.55 144.01) rotate(176.35)"/><path class="cls-4" d="M150.06,26.99h6.23c5.65,0,10.25,4.59,10.25,10.25h-26.72c0-5.65,4.59-10.25,10.25-10.25Z"/><path class="cls-6" d="M150.24,30.13h5.87c3.86,0,6.99,3.13,6.99,6.99h-19.85c0-3.86,3.13-6.99,6.99-6.99Z"/><path class="cls-4" d="M130.41,34.36h45.54c3.07,0,5.56,2.49,5.56,5.56h0c0,.74-.6,1.35-1.35,1.35h-53.97c-.74,0-1.35-.6-1.35-1.35h0c0-3.07,2.49-5.56,5.56-5.56Z"/><rect class="cls-5" x="128.68" y="8.99" width="44.99" height="3" rx="1.5" ry="1.5"/><circle class="cls-5" cx="276.03" cy="175.99" r="3"/><circle class="cls-5" cx="265.03" cy="175.99" r="3"/></svg>