<?xml version="1.0" encoding="UTF-8"?><svg id="Layer_1" xmlns="http://www.w3.org/2000/svg" width="109" height="66" viewBox="0 0 109 66"><defs><style>.cls-1{fill:#f4f4f4;}.cls-2{fill:#feb3d2;}</style></defs><circle class="cls-2" cx="54.04" cy="18.08" r="17.02"/><path class="cls-1" d="M70.32,18.08c-.07,6.78-4.33,13.04-10.78,15.33-6.39,2.26-13.64.3-18-4.9s-4.97-12.88-1.5-18.73S50.56.75,57.27,2.13c7.56,1.55,12.97,8.28,13.04,15.96,0,.96,1.51.97,1.5,0-.07-7.37-4.64-14.05-11.57-16.66-6.97-2.62-15.14-.45-19.88,5.3-4.76,5.77-5.44,14.15-1.54,20.57s11.39,9.64,18.67,8.23c8.28-1.61,14.23-9.08,14.31-17.43,0-.97-1.49-.97-1.5,0Z"/><circle class="cls-2" cx="20.2" cy="18.71" r="11.77"/><path class="cls-1" d="M31.22,18.71c-.06,4.6-2.92,8.81-7.29,10.37s-9.3.18-12.24-3.37-3.3-8.71-.95-12.65,7.02-6.04,11.52-5.18c5.19,1,8.89,5.59,8.96,10.83.01.96,1.51.97,1.5,0-.07-5.18-3.24-9.86-8.1-11.71s-10.75-.33-14.09,3.77-3.77,9.86-1.09,14.35,7.94,6.82,13.06,5.9c5.91-1.06,10.14-6.37,10.22-12.31.01-.97-1.49-.97-1.5,0Z"/><circle class="cls-2" cx="87.46" cy="18.71" r="11.77"/><path class="cls-1" d="M98.48,18.71c-.06,4.6-2.92,8.81-7.29,10.37s-9.3.18-12.24-3.37-3.3-8.71-.95-12.65,7.02-6.04,11.52-5.18c5.19,1,8.89,5.59,8.96,10.83.01.96,1.51.97,1.5,0-.07-5.18-3.24-9.86-8.1-11.71s-10.75-.33-14.09,3.77-3.77,9.86-1.09,14.35,7.94,6.82,13.06,5.9c5.91-1.06,10.14-6.37,10.22-12.31.01-.97-1.49-.97-1.5,0Z"/><path class="cls-2" d="M8.75,31c1.16-.68,2.56-.59,3.63.25,1.51,1.18,3.93,2.61,7.07,2.8,4.14.25,7.13-2.05,8.9-3.14,1.52-.93,1.91-.94,2.92-.66.33.09.64.2.93.31,4.96,2.03,7.23,8.83,8.17,12.92.42,1.82-.36,3.71-1.85,4.55s-3.43,1.8-5.61,2.57c-9.63,3.41-17.96,1.42-22.43.29-1.85-.47-4.23-1.19-6.98-2.36-1.56-.66-2.5-2.44-2.27-4.3.38-3.09,1.5-7.69,4.76-11.06.92-.95,1.87-1.65,2.75-2.17Z"/><path class="cls-1" d="M9.13,31.64c1.86-.95,3.17.6,4.68,1.46,1.41.79,2.96,1.34,4.57,1.58,3.13.46,6.08-.49,8.74-2.1.95-.58,2.19-1.76,3.33-1.73,1.32.03,2.76.99,3.72,1.83,2.2,1.93,3.54,4.75,4.47,7.47.39,1.15.77,2.34,1,3.53.4,2.07-.77,3.34-2.47,4.23-3.61,1.91-7.57,3.17-11.63,3.63-5.94.68-11.97-.36-17.63-2.17-1.79-.57-4.64-1.13-5.56-2.92-.79-1.53-.23-3.48.17-5.07.99-3.94,3.07-7.59,6.6-9.74.82-.5.07-1.8-.76-1.3-3.34,2.03-5.57,5.28-6.8,8.95-.96,2.86-2.12,6.95.55,9.24,1.45,1.24,3.8,1.78,5.58,2.34,1.48.47,2.98.85,4.49,1.2,3.36.77,6.8,1.24,10.26,1.17,4.37-.09,8.69-1.02,12.71-2.73,1.63-.69,3.74-1.44,4.91-2.83,1.07-1.27,1.32-2.94.98-4.53-.65-3.02-1.77-6.1-3.45-8.7-1.51-2.34-4.08-4.96-7.07-5.11-1.55-.08-2.93,1.17-4.19,1.93-1.85,1.13-3.87,1.98-6.06,2.03-2.35.05-4.63-.74-6.57-2.02-.83-.55-1.55-1.2-2.55-1.41s-1.92.02-2.8.47-.1,1.73.76,1.3Z"/><path class="cls-2" d="M76.07,30.91c1.16-.68,2.56-.59,3.63.25,1.51,1.18,3.93,2.61,7.07,2.8,4.14.25,7.13-2.05,8.9-3.14,1.52-.93,1.91-.94,2.92-.66.33.09.64.2.93.31,4.96,2.03,7.23,8.83,8.17,12.92.42,1.82-.36,3.71-1.85,4.55s-3.43,1.8-5.61,2.57c-9.63,3.41-17.96,1.42-22.43.29-1.85-.47-4.23-1.19-6.98-2.36-1.56-.66-2.5-2.44-2.27-4.3.38-3.09,1.5-7.69,4.76-11.06.92-.95,1.87-1.65,2.75-2.17Z"/><path class="cls-1" d="M76.45,31.56c1.86-.95,3.17.6,4.68,1.46,1.41.79,2.96,1.34,4.57,1.58,3.13.46,6.08-.49,8.74-2.1.95-.58,2.19-1.76,3.33-1.73,1.32.03,2.76.99,3.72,1.83,2.2,1.93,3.54,4.75,4.47,7.47.39,1.15.77,2.34,1,3.53.4,2.07-.77,3.34-2.47,4.23-3.61,1.91-7.57,3.17-11.63,3.63-5.94.68-11.97-.36-17.63-2.17-1.79-.57-4.64-1.13-5.56-2.92-.79-1.53-.23-3.48.17-5.07.99-3.94,3.07-7.59,6.6-9.74.82-.5.07-1.8-.76-1.3-3.34,2.03-5.57,5.28-6.8,8.95-.96,2.86-2.12,6.95.55,9.24,1.45,1.24,3.8,1.78,5.58,2.34,1.48.47,2.98.85,4.49,1.2,3.36.77,6.8,1.24,10.26,1.17,4.37-.09,8.69-1.02,12.71-2.73,1.63-.69,3.74-1.44,4.91-2.83,1.07-1.27,1.32-2.94.98-4.53-.65-3.02-1.77-6.1-3.45-8.7-1.51-2.34-4.08-4.96-7.07-5.11-1.55-.08-2.93,1.17-4.19,1.93-1.85,1.13-3.87,1.98-6.06,2.03-2.35.05-4.63-.74-6.57-2.02-.83-.55-1.55-1.2-2.55-1.41s-1.92.02-2.8.47-.1,1.73.76,1.3Z"/><path class="cls-2" d="M37.85,33.8c1.67-.98,3.71-.85,5.26.36,2.19,1.71,5.69,3.77,10.24,4.05,5.99.36,10.32-2.97,12.88-4.54,2.19-1.35,2.76-1.36,4.22-.96.48.13.93.28,1.35.45,7.17,2.94,10.46,12.78,11.82,18.7.61,2.63-.52,5.37-2.67,6.59s-4.96,2.6-8.12,3.72c-13.94,4.94-26,2.06-32.46.42-2.68-.68-6.13-1.73-10.1-3.41-2.25-.96-3.62-3.53-3.29-6.22.55-4.48,2.17-11.13,6.89-16.01,1.33-1.38,2.7-2.39,3.98-3.15Z"/><path class="cls-1" d="M38.23,34.45c2.76-1.48,4.59.63,6.82,1.94,2.08,1.22,4.38,2.06,6.77,2.41,4.68.68,8.98-.83,12.9-3.28,1.37-.86,3.08-2.44,4.79-2.26,1.98.22,3.98,1.47,5.43,2.77,3.18,2.85,5.13,6.9,6.5,10.88.59,1.73,1.18,3.53,1.5,5.34.23,1.32.03,2.7-.66,3.86s-1.84,1.8-3.03,2.43c-5.27,2.8-11.06,4.66-16.99,5.33-8.84,1-17.84-.56-26.24-3.32-1.56-.51-3.11-1.08-4.63-1.71-1.38-.57-2.48-1.26-3.15-2.65-1.08-2.23-.31-5.02.26-7.31,1.43-5.82,4.5-11.27,9.75-14.43.83-.5.07-1.79-.76-1.3-4.94,2.97-8.16,7.88-9.87,13.3-1.25,3.99-2.81,9.7,1.15,12.69,1.09.83,2.5,1.25,3.76,1.74,1.52.58,3.05,1.11,4.6,1.58,2.01.61,4.04,1.12,6.09,1.59,4.81,1.09,9.73,1.73,14.67,1.61,6.31-.15,12.54-1.53,18.34-4.02,2.33-1,5.38-2.09,6.95-4.19s1.52-4.41.93-6.78c-1.06-4.25-2.59-8.53-5.08-12.17-1.26-1.85-2.79-3.54-4.65-4.8-1.51-1.02-3.66-2.11-5.54-1.95-2.2.19-4.26,2.16-6.13,3.23-2.61,1.5-5.47,2.52-8.51,2.51-3.3-.01-6.49-1.13-9.23-2.92-1.09-.71-2.04-1.63-3.33-1.98-1.43-.39-2.86-.13-4.16.57-.85.46-.09,1.75.76,1.3Z"/></svg>