<?xml version="1.0" encoding="UTF-8"?><svg id="Layer_1" xmlns="http://www.w3.org/2000/svg" width="190" height="338" viewBox="0 0 190 338"><defs><style>.cls-1{fill:gray;}.cls-2{fill:#f4f4f4;}.cls-3{fill:#fed12e;}.cls-4{fill:#ccc;}.cls-5{fill:#fff;}.cls-6{fill:#999;}</style></defs><rect class="cls-3" x="1.02" y="1.01" width="188" height="336" rx="14.81" ry="14.81"/><path class="cls-2" d="M174.21,336.26h-33.96c-11.01,0-22.02,0-33.03,0H20.53c-1.44,0-2.89,0-4.33,0-5.48-.02-10.55-2.87-13-7.87-1.62-3.3-1.43-6.72-1.43-10.24v-62.15c0-10.56,0-21.12,0-31.68v-70.07c0-11.55,0-23.11,0-34.66v-32.42c0-9.43,0-18.86,0-28.3,0-7.49,0-14.97,0-22.46v-14.87c0-1.9-.02-3.81,0-5.71.1-7.74,6.32-13.97,14.06-14.07.9-.01,1.81,0,2.72,0,6,0,12.01,0,18.01,0,9.9,0,19.8,0,29.7,0,11.66,0,23.31,0,34.97,0s22.47,0,33.71,0c8.8,0,17.61,0,26.41,0,4.19,0,8.38-.02,12.57,0,5.84.03,11.23,3.38,13.39,8.9.75,1.93.97,3.94.97,5.98v304.06c0,.49,0,.99,0,1.48-.1,7.76-6.31,13.95-14.06,14.07-.96.02-.97,1.52,0,1.5,7.74-.12,14.45-5.84,15.43-13.6.13-1.04.13-2.07.13-3.11V25.03c0-2.88,0-5.76,0-8.64-.02-8.9-6.74-16.05-15.75-16.13-4.06-.04-8.13,0-12.2,0-8.82,0-17.63,0-26.45,0-11.38,0-22.76,0-34.15,0s-23.52,0-35.28,0c-9.95,0-19.9,0-29.86,0-5.96,0-11.91,0-17.87,0-1.11,0-2.22-.04-3.33.03C7.2.77.91,6.97.32,14.64c-.16,2.07-.05,4.19-.05,6.26,0,4.87,0,9.74,0,14.62,0,7.46,0,14.92,0,22.38,0,9.46,0,18.93,0,28.39v103.65c0,11.61,0,23.23,0,34.84v59.56c0,7.07,0,14.13,0,21.2v13.14c0,4.15.03,8.08,2.39,11.81,2.92,4.62,7.99,7.24,13.4,7.27,1.35,0,2.69,0,4.04,0,6.78,0,13.56,0,20.34,0h66.78c11.15,0,22.3,0,33.45,0h33.54c.97,0,.97-1.5,0-1.5Z"/><rect class="cls-5" x="10.1" y="11.01" width="169.84" height="317" rx="11.29" ry="11.29"/><path class="cls-3" d="M128.21,23.01H63.64c-3.49,0-5.41-3-6.31-6.95l-2.72-8.05h82.65l-2.72,8.05c-.91,3.95-2.83,6.95-6.31,6.95Z"/><rect class="cls-1" x="80.94" y="13.01" width="29.06" height="3" rx="1.5" ry="1.5"/><ellipse class="cls-1" cx="124.99" cy="14.51" rx="2.27" ry="2.5"/><path class="cls-4" d="M137.68,263.01H55.91c-4.09,0-7.53-3.05-8.03-7.11l-9.64-126.39c-.27-3.51,2.51-6.5,6.02-6.5h103.06c3.48,0,6.24,2.93,6.03,6.41l-7.66,126.59c-.54,4.01-3.97,7-8.01,7Z"/><rect class="cls-6" x="92.84" y="142.01" width="7" height="101" rx="3.5" ry="3.5"/><rect class="cls-6" x="121.02" y="142.01" width="7" height="101" rx="3.5" ry="3.5" transform="translate(12.52 -7.54) rotate(3.65)"/><rect class="cls-6" x="62.02" y="142.01" width="7" height="101" rx="3.5" ry="3.5" transform="translate(143.17 380.45) rotate(176.35)"/><path class="cls-4" d="M84.24,85.01h24.2c9.33,0,16.9,7.57,16.9,16.9v5.34h-58v-5.34c0-9.33,7.57-16.9,16.9-16.9Z"/><path class="cls-5" d="M86.74,91.83h19.18c6.6,0,11.95,5.35,11.95,11.95v3.22h-43.09v-3.22c0-6.6,5.35-11.95,11.95-11.95Z"/><path class="cls-4" d="M46.91,101.01h98.85c6.66,0,12.07,5.41,12.07,12.07h0c0,1.62-1.31,2.93-2.93,2.93H37.76c-1.62,0-2.93-1.31-2.93-2.93h0c0-6.66,5.41-12.07,12.07-12.07Z"/></svg>