<svg width="393" height="176" viewBox="0 0 393 176" fill="none" xmlns="http://www.w3.org/2000/svg">
<mask id="path-1-inside-1_33_219" fill="white">
<path d="M0 0H393V176H0V0Z"/>
</mask>
<path d="M393 175H0V177H393V175Z" fill="#1A1A1A" mask="url(#path-1-inside-1_33_219)"/>
<path fill-rule="evenodd" clip-rule="evenodd" d="M305.5 26.6896C305.5 26.6896 315.354 9.78212 324.315 12.2452C333.276 14.7082 333.611 34.4258 333.611 34.4258C333.611 34.4258 350.365 24.8729 356.923 31.6178C363.482 38.3626 354.193 55.591 354.193 55.591C354.193 55.591 373.367 55.936 375.762 65.1513C378.157 74.3665 361.716 84.5 361.716 84.5C361.716 84.5 378.157 94.6335 375.762 103.849C373.367 113.064 354.193 113.409 354.193 113.409C354.193 113.409 363.482 130.637 356.923 137.382C350.365 144.127 333.611 134.574 333.611 134.574C333.611 134.574 333.276 154.292 324.315 156.755C315.354 159.218 305.5 142.31 305.5 142.31C305.5 142.31 295.646 159.218 286.685 156.755C277.724 154.292 277.389 134.574 277.389 134.574C277.389 134.574 260.635 144.127 254.077 137.382C247.518 130.637 256.807 113.409 256.807 113.409C256.807 113.409 237.633 113.064 235.238 103.849C232.843 94.6335 249.284 84.5 249.284 84.5C249.284 84.5 232.843 74.3665 235.238 65.1513C237.633 55.936 256.807 55.591 256.807 55.591C256.807 55.591 247.518 38.3626 254.077 31.6178C260.635 24.8729 277.389 34.4258 277.389 34.4258C277.389 34.4258 277.724 14.7082 286.685 12.2452C295.646 9.78212 305.5 26.6896 305.5 26.6896Z" fill="#36B7FF"/>
<g filter="url(#filter0_d_33_219)">
<rect x="255" y="63" width="101" height="43" rx="9.64968" fill="#F4F4F4"/>
<rect x="255.643" y="63.6433" width="99.7134" height="41.7134" rx="9.00637" stroke="black" stroke-width="1.28662"/>
</g>
<path d="M277.385 76.8083C277.385 76.6206 277.347 76.4598 277.27 76.3258C277.193 76.1918 277.06 76.0862 276.873 76.0092C276.742 75.9555 276.589 75.9237 276.415 75.9137C276.241 75.9003 276.038 75.8936 275.807 75.8936H275.109V77.9089H275.702C276.01 77.9089 276.268 77.8939 276.476 77.8637C276.683 77.8335 276.858 77.7649 276.998 77.6576C277.132 77.5538 277.229 77.4399 277.29 77.3159C277.353 77.1886 277.385 77.0194 277.385 76.8083ZM280.396 82H278.039L275.998 79.2559H275.109V82H273.189V74.5165H276.425C276.868 74.5165 277.248 74.5416 277.566 74.5919C277.884 74.6421 278.183 74.751 278.461 74.9185C278.742 75.0861 278.965 75.3039 279.129 75.5719C279.297 75.8366 279.381 76.17 279.381 76.5721C279.381 77.1249 279.252 77.5756 278.994 77.924C278.739 78.2725 278.374 78.5623 277.898 78.7935L280.396 82ZM286.653 82H281.24V74.5165H286.653V75.9639H283.16V77.2556H286.402V78.703H283.16V80.5525H286.653V82ZM294.895 81.5728C294.56 81.7035 294.116 81.8341 293.564 81.9648C293.011 82.0921 292.46 82.1558 291.91 82.1558C290.637 82.1558 289.64 81.8107 288.92 81.1205C288.199 80.4269 287.839 79.4703 287.839 78.2507C287.839 77.088 288.203 76.1516 288.93 75.4412C289.657 74.7276 290.67 74.3707 291.97 74.3707C292.463 74.3707 292.932 74.416 293.378 74.5064C293.823 74.5935 294.319 74.7694 294.865 75.0341V76.7882H294.649C294.555 76.7178 294.418 76.619 294.237 76.4916C294.056 76.361 293.882 76.2504 293.714 76.1599C293.52 76.0527 293.292 75.9606 293.031 75.8835C292.773 75.8064 292.498 75.7679 292.207 75.7679C291.865 75.7679 291.555 75.8182 291.277 75.9187C290.999 76.0192 290.749 76.1733 290.528 76.3811C290.317 76.5821 290.149 76.8384 290.025 77.15C289.905 77.4583 289.844 77.8151 289.844 78.2205C289.844 79.0481 290.064 79.6814 290.503 80.1203C290.942 80.5592 291.59 80.7787 292.448 80.7787C292.522 80.7787 292.602 80.777 292.689 80.7737C292.78 80.7703 292.862 80.7653 292.935 80.7586V79.2911H291.443V77.8788H294.895V81.5728ZM300.675 82H296.293V80.6732H297.519V75.8433H296.293V74.5165H300.675V75.8433H299.449V80.6732H300.675V82ZM308.239 79.6479C308.239 80.385 307.926 80.9848 307.299 81.4472C306.676 81.9062 305.828 82.1357 304.756 82.1357C304.136 82.1357 303.595 82.0821 303.133 81.9749C302.674 81.8643 302.243 81.7253 301.841 81.5577V79.7635H302.052C302.451 80.0818 302.897 80.3264 303.389 80.4973C303.885 80.6681 304.361 80.7536 304.816 80.7536C304.934 80.7536 305.088 80.7435 305.279 80.7234C305.47 80.7033 305.626 80.6698 305.746 80.6229C305.894 80.5626 306.014 80.4872 306.108 80.3967C306.205 80.3063 306.254 80.1723 306.254 79.9947C306.254 79.8305 306.184 79.6898 306.043 79.5725C305.905 79.4519 305.703 79.3597 305.435 79.2961C305.153 79.2291 304.855 79.1671 304.54 79.1101C304.228 79.0498 303.935 78.9744 303.661 78.884C303.031 78.6796 302.577 78.4031 302.299 78.0547C302.024 77.7029 301.886 77.2673 301.886 76.748C301.886 76.051 302.198 75.4831 302.821 75.0442C303.448 74.6019 304.252 74.3808 305.234 74.3808C305.726 74.3808 306.212 74.4294 306.691 74.5265C307.174 74.6203 307.591 74.7393 307.943 74.8834V76.6072H307.737C307.435 76.366 307.065 76.165 306.626 76.0041C306.19 75.84 305.745 75.7579 305.289 75.7579C305.128 75.7579 304.967 75.7696 304.806 75.793C304.649 75.8131 304.497 75.8534 304.349 75.9137C304.218 75.9639 304.106 76.041 304.012 76.1449C303.919 76.2454 303.872 76.361 303.872 76.4916C303.872 76.6893 303.947 76.8418 304.098 76.949C304.249 77.0529 304.533 77.1484 304.952 77.2355C305.227 77.2924 305.49 77.3477 305.741 77.4013C305.996 77.4549 306.269 77.5286 306.56 77.6225C307.133 77.8101 307.556 78.0664 307.827 78.3914C308.102 78.7131 308.239 79.1319 308.239 79.6479ZM315.421 75.9639H313.084V82H311.154V75.9639H308.817V74.5165H315.421V75.9639ZM320.779 76.8083C320.779 76.6206 320.74 76.4598 320.663 76.3258C320.586 76.1918 320.454 76.0862 320.266 76.0092C320.135 75.9555 319.983 75.9237 319.809 75.9137C319.634 75.9003 319.432 75.8936 319.201 75.8936H318.502V77.9089H319.095C319.403 77.9089 319.661 77.8939 319.869 77.8637C320.077 77.8335 320.251 77.7649 320.392 77.6576C320.526 77.5538 320.623 77.4399 320.683 77.3159C320.747 77.1886 320.779 77.0194 320.779 76.8083ZM323.789 82H321.432L319.392 79.2559H318.502V82H316.582V74.5165H319.819C320.261 74.5165 320.641 74.5416 320.96 74.5919C321.278 74.6421 321.576 74.751 321.854 74.9185C322.136 75.0861 322.358 75.3039 322.523 75.5719C322.69 75.8366 322.774 76.17 322.774 76.5721C322.774 77.1249 322.645 77.5756 322.387 77.924C322.132 78.2725 321.767 78.5623 321.291 78.7935L323.789 82ZM330.046 82H324.634V74.5165H330.046V75.9639H326.553V77.2556H329.795V78.703H326.553V80.5525H330.046V82ZM335.866 76.8083C335.866 76.6206 335.828 76.4598 335.751 76.3258C335.674 76.1918 335.541 76.0862 335.354 76.0092C335.223 75.9555 335.071 75.9237 334.896 75.9137C334.722 75.9003 334.519 75.8936 334.288 75.8936H333.59V77.9089H334.183C334.491 77.9089 334.749 77.8939 334.957 77.8637C335.164 77.8335 335.339 77.7649 335.479 77.6576C335.613 77.5538 335.711 77.4399 335.771 77.3159C335.835 77.1886 335.866 77.0194 335.866 76.8083ZM338.877 82H336.52L334.479 79.2559H333.59V82H331.67V74.5165H334.906C335.349 74.5165 335.729 74.5416 336.047 74.5919C336.366 74.6421 336.664 74.751 336.942 74.9185C337.223 75.0861 337.446 75.3039 337.61 75.5719C337.778 75.8366 337.862 76.17 337.862 76.5721C337.862 77.1249 337.733 77.5756 337.475 77.924C337.22 78.2725 336.855 78.5623 336.379 78.7935L338.877 82ZM277.978 91.2658C277.978 91.9627 277.819 92.5876 277.501 93.1404C277.183 93.6899 276.78 94.1121 276.295 94.4069C275.929 94.6281 275.529 94.7822 275.093 94.8693C274.658 94.9564 274.142 95 273.545 95H270.907V87.5165H273.621C274.231 87.5165 274.757 87.5684 275.199 87.6723C275.641 87.7728 276.013 87.9169 276.315 88.1045C276.831 88.4195 277.236 88.845 277.531 89.3811C277.829 89.9138 277.978 90.542 277.978 91.2658ZM275.983 91.2507C275.983 90.7582 275.893 90.3377 275.712 89.9892C275.534 89.6374 275.251 89.3626 274.862 89.165C274.665 89.0678 274.462 89.0025 274.254 88.9689C274.05 88.9321 273.74 88.9137 273.324 88.9137H272.837V93.5978H273.324C273.783 93.5978 274.12 93.5777 274.335 93.5375C274.549 93.4939 274.758 93.4168 274.963 93.3063C275.315 93.1052 275.573 92.8372 275.737 92.5021C275.901 92.1637 275.983 91.7466 275.983 91.2507ZM283.497 95H279.114V93.6732H280.34V88.8433H279.114V87.5165H283.497V88.8433H282.27V93.6732H283.497V95ZM290.925 88.9639H288.588V95H286.658V88.9639H284.321V87.5165H290.925V88.9639ZM302.007 92.7082C302.007 93.0701 301.933 93.3934 301.786 93.6782C301.642 93.963 301.442 94.1992 301.188 94.3868C300.893 94.608 300.568 94.7655 300.213 94.8593C299.861 94.9531 299.414 95 298.871 95H295.604V87.5165H298.509C299.112 87.5165 299.553 87.5366 299.831 87.5768C300.112 87.617 300.39 87.7058 300.665 87.8432C300.95 87.9872 301.161 88.1816 301.298 88.4262C301.439 88.6674 301.509 88.9438 301.509 89.2554C301.509 89.6173 301.414 89.9373 301.223 90.2154C301.032 90.4901 300.762 90.7046 300.414 90.8587V90.8989C300.903 90.9961 301.29 91.1971 301.575 91.502C301.863 91.8069 302.007 92.209 302.007 92.7082ZM299.534 89.6324C299.534 89.5084 299.502 89.3844 299.439 89.2604C299.378 89.1365 299.27 89.0443 299.112 88.984C298.971 88.9304 298.795 88.9019 298.584 88.8986C298.377 88.8919 298.083 88.8885 297.705 88.8885H297.524V90.4717H297.825C298.13 90.4717 298.39 90.4667 298.604 90.4566C298.819 90.4466 298.988 90.4131 299.112 90.3561C299.286 90.279 299.4 90.1802 299.454 90.0596C299.507 89.9356 299.534 89.7932 299.534 89.6324ZM300.007 92.678C300.007 92.4402 299.96 92.2575 299.866 92.1302C299.776 91.9996 299.62 91.9024 299.399 91.8387C299.248 91.7952 299.04 91.7717 298.775 91.7684C298.511 91.765 298.234 91.7633 297.946 91.7633H297.524V93.6279H297.665C298.207 93.6279 298.596 93.6263 298.831 93.6229C299.065 93.6196 299.281 93.576 299.479 93.4922C299.68 93.4085 299.817 93.2979 299.891 93.1605C299.968 93.0198 300.007 92.859 300.007 92.678ZM307.49 95H303.108V93.6732H304.334V88.8433H303.108V87.5165H307.49V88.8433H306.264V93.6732H307.49V95ZM316.135 91.2658C316.135 91.9627 315.976 92.5876 315.657 93.1404C315.339 93.6899 314.937 94.1121 314.451 94.4069C314.086 94.6281 313.685 94.7822 313.25 94.8693C312.814 94.9564 312.298 95 311.702 95H309.063V87.5165H311.777C312.387 87.5165 312.913 87.5684 313.355 87.6723C313.798 87.7728 314.17 87.9169 314.471 88.1045C314.987 88.4195 315.393 88.845 315.687 89.3811C315.986 89.9138 316.135 90.542 316.135 91.2658ZM314.139 91.2507C314.139 90.7582 314.049 90.3377 313.868 89.9892C313.691 89.6374 313.407 89.3626 313.019 89.165C312.821 89.0678 312.618 89.0025 312.411 88.9689C312.206 88.9321 311.896 88.9137 311.481 88.9137H310.993V93.5978H311.481C311.94 93.5978 312.277 93.5777 312.491 93.5375C312.705 93.4939 312.915 93.4168 313.119 93.3063C313.471 93.1052 313.729 92.8372 313.893 92.5021C314.057 92.1637 314.139 91.7466 314.139 91.2507ZM321.804 89.8083C321.804 89.6206 321.765 89.4598 321.688 89.3258C321.611 89.1918 321.479 89.0862 321.291 89.0092C321.161 88.9555 321.008 88.9237 320.834 88.9137C320.66 88.9003 320.457 88.8936 320.226 88.8936H319.527V90.9089H320.12C320.429 90.9089 320.687 90.8939 320.894 90.8637C321.102 90.8335 321.276 90.7649 321.417 90.6576C321.551 90.5538 321.648 90.4399 321.708 90.3159C321.772 90.1886 321.804 90.0194 321.804 89.8083ZM324.814 95H322.457L320.417 92.2559H319.527V95H317.607V87.5165H320.844C321.286 87.5165 321.667 87.5416 321.985 87.5919C322.303 87.6421 322.601 87.751 322.879 87.9185C323.161 88.0861 323.384 88.3039 323.548 88.5719C323.715 88.8366 323.799 89.17 323.799 89.5721C323.799 90.1249 323.67 90.5756 323.412 90.924C323.158 91.2725 322.792 91.5623 322.317 91.7935L324.814 95ZM332.574 95H330.579L330.061 93.4872H327.287L326.77 95H324.824L327.589 87.5165H329.81L332.574 95ZM329.594 92.1151L328.674 89.4313L327.755 92.1151H329.594ZM340.269 94.5728C339.934 94.7035 339.49 94.8341 338.937 94.9648C338.384 95.0921 337.833 95.1558 337.284 95.1558C336.01 95.1558 335.014 94.8107 334.293 94.1205C333.573 93.4269 333.213 92.4703 333.213 91.2507C333.213 90.088 333.576 89.1516 334.303 88.4412C335.03 87.7276 336.044 87.3707 337.344 87.3707C337.836 87.3707 338.306 87.416 338.751 87.5064C339.197 87.5935 339.693 87.7694 340.239 88.0341V89.7882H340.023C339.929 89.7178 339.792 89.619 339.611 89.4916C339.43 89.361 339.255 89.2504 339.088 89.1599C338.894 89.0527 338.666 88.9606 338.404 88.8835C338.146 88.8064 337.872 88.7679 337.58 88.7679C337.238 88.7679 336.928 88.8182 336.65 88.9187C336.372 89.0192 336.123 89.1733 335.902 89.3811C335.69 89.5821 335.523 89.8384 335.399 90.15C335.278 90.4583 335.218 90.8151 335.218 91.2205C335.218 92.0481 335.437 92.6814 335.876 93.1203C336.315 93.5592 336.964 93.7787 337.821 93.7787C337.895 93.7787 337.976 93.777 338.063 93.7737C338.153 93.7703 338.235 93.7653 338.309 93.7586V92.2911H336.816V90.8788H340.269V94.5728Z" fill="#1A1A1A"/>
<defs>
<filter id="filter0_d_33_219" x="255" y="63" width="104.217" height="46.2166" filterUnits="userSpaceOnUse" color-interpolation-filters="sRGB">
<feFlood flood-opacity="0" result="BackgroundImageFix"/>
<feColorMatrix in="SourceAlpha" type="matrix" values="0 0 0 0 0 0 0 0 0 0 0 0 0 0 0 0 0 0 127 0" result="hardAlpha"/>
<feOffset dx="3.21656" dy="3.21656"/>
<feComposite in2="hardAlpha" operator="out"/>
<feColorMatrix type="matrix" values="0 0 0 0 0.0471665 0 0 0 0 0.470963 0 0 0 0 0.7075 0 0 0 1 0"/>
<feBlend mode="normal" in2="BackgroundImageFix" result="effect1_dropShadow_33_219"/>
<feBlend mode="normal" in="SourceGraphic" in2="effect1_dropShadow_33_219" result="shape"/>
</filter>
</defs>
</svg>
