<?xml version="1.0" encoding="UTF-8"?><svg id="Layer_1" xmlns="http://www.w3.org/2000/svg" width="187" height="201" viewBox="0 0 187 201"><defs><style>.cls-1,.cls-2{fill:#f4f4f4;}.cls-2{stroke:#ccc;stroke-miterlimit:10;}.cls-3{fill:#7b9329;}.cls-4{fill:#1a1a1a;}.cls-5{fill:#cdf545;}</style></defs><path class="cls-5" d="M168.35,199.87h-81.77c-4.09,0-7.53-3.05-8.03-7.11l-9.64-126.39c-.27-3.51,2.51-6.5,6.02-6.5h103.06c3.48,0,6.24,2.93,6.03,6.41l-7.66,126.59c-.54,4.01-3.97,7-8.01,7Z"/><path class="cls-1" d="M168.35,199.12h-81.25c-3.87,0-7.37-2.47-7.81-6.51s-.63-8.28-.95-12.41c-.68-8.88-1.35-17.76-2.03-26.64-.83-10.94-1.67-21.87-2.5-32.81-.78-10.17-1.55-20.34-2.33-30.51-.51-6.72-1.02-13.43-1.54-20.15-.09-1.21-.21-2.42-.28-3.63-.16-2.86,1.74-5.47,4.68-5.79.46-.05.93-.04,1.39-.04h100.17c2.44,0,4.84-.04,6.45,2.28,1.17,1.68.92,3.52.8,5.4l-1.08,17.9c-.6,9.83-1.19,19.67-1.79,29.5-.66,10.98-1.33,21.96-1.99,32.94-.57,9.42-1.14,18.85-1.71,28.27-.31,5.05-.61,10.1-.92,15.16-.24,3.91-3.34,6.97-7.31,7.05-.96.02-.97,1.52,0,1.5,4.59-.1,8.47-3.59,8.79-8.22.11-1.65.2-3.31.3-4.96.45-7.5.91-14.99,1.36-22.49.65-10.67,1.29-21.35,1.94-32.02s1.33-21.92,1.99-32.88c.51-8.36,1.01-16.71,1.52-25.07l.42-6.9c.13-2.09.25-4.08-1.02-5.96-1.76-2.6-4.44-3.02-7.27-3.02h-100.78c-.75,0-1.48,0-2.22.18-3.23.75-5.39,3.81-5.21,7.08.2,3.7.56,7.41.85,11.1.67,8.83,1.35,17.65,2.02,26.48.84,11.06,1.69,22.13,2.53,33.19.79,10.42,1.59,20.83,2.38,31.25.53,6.88,1.05,13.77,1.58,20.65.09,1.21.15,2.43.28,3.65.48,4.67,4.49,7.9,9.07,7.93,6.19.03,12.39,0,18.58,0h62.9c.97,0,.97-1.5,0-1.5Z"/><rect class="cls-3" x="123.51" y="78.87" width="7" height="101" rx="3.5" ry="3.5"/><rect class="cls-3" x="151.69" y="78.87" width="7" height="101" rx="3.5" ry="3.5" transform="translate(8.56 -9.63) rotate(3.65)"/><rect class="cls-3" x="92.69" y="78.87" width="7" height="101" rx="3.5" ry="3.5" transform="translate(200.43 252.34) rotate(176.35)"/><path class="cls-5" d="M155.94,35l-55.66-16.32,1.5-5.13c2.63-8.96,12.02-14.09,20.97-11.46l23.22,6.81c8.96,2.63,14.09,12.02,11.46,20.97l-1.5,5.13Z"/><path class="cls-1" d="M156.14,34.28c-6.29-1.84-12.57-3.69-18.86-5.53-9.97-2.92-19.94-5.85-29.91-8.77-2.3-.67-4.59-1.35-6.89-2.02l.52.92c.57-1.93,1.07-3.9,1.72-5.81,1.31-3.86,4.11-7.1,7.7-9.02s7.86-2.39,11.79-1.33c1.19.32,2.36.69,3.54,1.03l15.27,4.48c1.52.45,3.04.89,4.56,1.34,3.16.94,5.95,2.69,8.07,5.23,2.88,3.45,4.2,8.11,3.57,12.56-.36,2.52-1.29,5.01-2.01,7.44-.27.93,1.17,1.32,1.45.4.63-2.15,1.4-4.31,1.85-6.51.82-3.98.23-8.16-1.65-11.76s-5.05-6.51-8.83-8.09c-1.49-.62-3.08-1.02-4.63-1.48l-16.08-4.72c-1.44-.42-2.88-.86-4.33-1.27-3.62-1.03-7.49-.96-11.03.34-4.25,1.57-7.84,4.73-9.82,8.82-1.21,2.49-1.82,5.29-2.59,7.94-.12.39.14.81.52.92,6.29,1.84,12.57,3.69,18.86,5.53,9.97,2.92,19.94,5.85,29.91,8.77,2.3.67,4.59,1.35,6.89,2.02.93.27,1.32-1.17.4-1.45Z"/><path class="cls-4" d="M148.85,32.67l-41.34-12.13.91-3.09c1.86-6.33,8.5-9.96,14.83-8.1l18.41,5.4c6.33,1.86,9.96,8.5,8.1,14.83l-.91,3.09Z"/><path class="cls-1" d="M149.05,31.94c-4.65-1.36-9.31-2.73-13.96-4.09-7.42-2.18-14.84-4.35-22.26-6.53-1.71-.5-3.42-1-5.13-1.5l.52.92c.47-1.61.84-3.34,1.59-4.85,1.28-2.61,3.58-4.67,6.33-5.64,3.48-1.22,6.62-.26,9.96.71l11.13,3.27c3,.88,6.21,1.51,8.59,3.69s3.75,5.35,3.67,8.6c-.05,2.04-.79,4.01-1.36,5.95-.27.93,1.17,1.32,1.45.4.53-1.81,1.18-3.62,1.36-5.5.28-2.88-.49-5.85-2.11-8.24s-4.13-4.23-6.97-5.1c-.84-.26-1.69-.49-2.53-.74l-12.06-3.54c-3.45-1.01-6.76-2.16-10.41-1.26-3.14.77-5.91,2.76-7.66,5.47-1.25,1.94-1.76,4.2-2.41,6.39-.12.39.14.81.52.92,4.65,1.36,9.31,2.73,13.96,4.09,7.42,2.18,14.84,4.35,22.26,6.53,1.71.5,3.42,1,5.13,1.5.93.27,1.32-1.17.4-1.45Z"/><path class="cls-5" d="M181.85,51.73L69.44,18.76c-1.55-.45-2.44-2.08-1.98-3.63h0c1.88-6.4,8.58-10.06,14.98-8.19l94.86,27.82c6.4,1.88,10.06,8.58,8.19,14.98h0c-.45,1.55-2.08,2.44-3.63,1.98Z"/><path class="cls-1" d="M182.05,51c-3.76-1.1-7.53-2.21-11.29-3.31-9.07-2.66-18.13-5.32-27.2-7.98l-32.66-9.58-28.09-8.24c-4.34-1.27-8.79-2.37-13.07-3.83-3.29-1.12-.72-5.26.7-6.91,2.72-3.15,7.05-4.61,11.12-3.68,1.36.31,2.7.77,4.03,1.16,7.58,2.22,15.17,4.45,22.75,6.67,10.75,3.15,21.51,6.31,32.26,9.46,9.17,2.69,18.34,5.38,27.51,8.07l7.51,2.2c3.47,1.02,6.53,2.66,8.31,6.03.9,1.71,1.35,3.64,1.3,5.57s-.53,4.96-3.17,4.35c-.94-.22-1.34,1.23-.4,1.45,4.48,1.04,5.36-4.22,4.99-7.48-.42-3.78-2.52-7.22-5.68-9.32-1.88-1.25-4.04-1.78-6.18-2.4-7.65-2.24-15.3-4.49-22.96-6.73-11.09-3.25-22.19-6.51-33.28-9.76-9.33-2.74-18.67-5.47-28-8.21l-7.02-2.06c-4.27-1.25-8.69-.9-12.32,1.89-3.17,2.43-7.53,9.43-1.54,11.24,1.79.54,3.6,1.06,5.4,1.58,8.18,2.4,16.35,4.8,24.53,7.19,11.09,3.25,22.18,6.5,33.26,9.76,10.3,3.02,20.61,6.04,30.91,9.07,5.69,1.67,11.38,3.34,17.07,5.01l.81.24c.93.27,1.32-1.17.4-1.45Z"/><rect class="cls-1" x="2.98" y="5.4" width="52.17" height="33.04" rx="1.51" ry="1.51" transform="translate(5.53 -5.85) rotate(12.69)"/><rect class="cls-1" x="31.95" y="34.18" width="52.94" height="33.15" rx="1.51" ry="1.51" transform="translate(-12.11 18.9) rotate(-16.67)"/><rect class="cls-2" x="4.36" y="6.93" width="49.62" height="29.85" transform="translate(5.51 -5.88) rotate(12.69)"/><polygon class="cls-2" points="56.9 12.58 27.53 30.1 8.09 1.59 32.29 7.04 56.9 12.58"/><rect class="cls-2" x="33.24" y="35.5" width="50.29" height="30.26" transform="translate(-12.07 18.88) rotate(-16.67)"/><polygon class="cls-2" points="78.27 28.66 61.03 58.73 29.69 43.21 53.78 35.99 78.27 28.66"/><path class="cls-5" d="M104.82,17.84l-1.52-.7c-1.17-.54-1.66-1.98-1.09-3.22l.86-1.87c.57-1.24,1.99-1.8,3.16-1.26l1.52.7c1.17.54,3.51-.85,2.94.39l-3,5c-.57,1.24-1.7,1.51-2.87.97Z"/><path class="cls-5" d="M156.25,30.18l.66-1.64c.51-1.26,0-2.67-1.16-3.14l-1.75-.71c-1.16-.47-2.51.17-3.02,1.44l-.66,1.64c-.51,1.26-.35,3.05.81,3.52l1.22,1.4c1.16.47,3.39-1.25,3.9-2.51Z"/></svg>