<svg width="499" height="510" viewBox="0 0 499 510" fill="none" xmlns="http://www.w3.org/2000/svg">
<path fill-rule="evenodd" clip-rule="evenodd" d="M330.519 304.929C315.713 325.493 334.59 505.217 321.855 508.239C309.12 511.262 291.437 338.684 266.138 339.952C240.839 341.22 112.282 468.21 101.976 460.149C91.6695 452.088 215.397 330.454 198.638 311.466C181.879 292.478 2.52822 271.184 2.40682 258.095C2.28542 245.006 174.453 265.849 178.859 240.898C183.264 215.948 88.1759 62.3794 98.3332 54.1199C108.49 45.8603 199.43 193.496 221.696 181.405C243.961 169.314 304.765 -0.887859 317.55 1.90308C330.334 4.69403 271.571 167.911 294.893 177.783C318.215 187.654 489.264 129.215 495.033 140.961C500.801 152.707 336.495 208.369 343.316 232.764C350.137 257.159 502.38 354.499 496.788 366.337C491.197 378.175 345.325 284.365 330.519 304.929Z" fill="#CDF545" stroke="#F4F4F4" stroke-width="3"/>
</svg>
