<svg width="43" height="42" viewBox="0 0 43 42" fill="none" xmlns="http://www.w3.org/2000/svg">
<path d="M24.1556 13.702L24.3125 14.3804L24.9052 14.0149L35.0808 7.73863L28.6673 17.6589L28.2764 18.2635L28.9794 18.4186L40.6793 21L28.9794 23.5814L28.2764 23.7365L28.6673 24.3411L35.0808 34.2614L24.9052 27.9851L24.3125 27.6196L24.1556 28.298L21.5 39.7809L18.8444 28.298L18.6875 27.6196L18.0948 27.9851L7.91917 34.2614L14.3327 24.3411L14.7236 23.7365L14.0206 23.5814L2.32073 21L14.0206 18.4186L14.7236 18.2635L14.3327 17.6589L7.91917 7.73863L18.0948 14.0149L18.6875 14.3804L18.8444 13.702L21.5 2.2191L24.1556 13.702Z" fill="#FEB3D2" stroke="#FEB3D2"/>
</svg>
