<svg width="141" height="145" viewBox="0 0 141 145" fill="none" xmlns="http://www.w3.org/2000/svg">
<path fill-rule="evenodd" clip-rule="evenodd" d="M70.4999 14.6896C70.4999 14.6896 80.3539 -2.21788 89.3149 0.245159C98.2759 2.7082 98.6114 22.4258 98.6114 22.4258C98.6114 22.4258 115.365 12.8729 121.923 19.6178C128.482 26.3626 119.193 43.591 119.193 43.591C119.193 43.591 138.366 43.936 140.762 53.1513C143.157 62.3665 126.716 72.5 126.716 72.5C126.716 72.5 143.157 82.6335 140.762 91.8487C138.366 101.064 119.193 101.409 119.193 101.409C119.193 101.409 128.482 118.637 121.923 125.382C115.365 132.127 98.6114 122.574 98.6114 122.574C98.6114 122.574 98.2759 142.292 89.3149 144.755C80.3539 147.218 70.4999 130.31 70.4999 130.31C70.4999 130.31 60.646 147.218 51.685 144.755C42.7239 142.292 42.3884 122.574 42.3884 122.574C42.3884 122.574 25.6353 132.127 19.0765 125.382C12.5177 118.637 21.8071 101.409 21.8071 101.409C21.8071 101.409 2.63343 101.064 0.238335 91.8487C-2.15676 82.6335 14.2843 72.5 14.2843 72.5C14.2843 72.5 -2.15676 62.3665 0.238335 53.1513C2.63343 43.936 21.8071 43.591 21.8071 43.591C21.8071 43.591 12.5177 26.3626 19.0765 19.6178C25.6353 12.8729 42.3884 22.4258 42.3884 22.4258C42.3884 22.4258 42.7239 2.7082 51.685 0.245159C60.646 -2.21788 70.4999 14.6896 70.4999 14.6896Z" fill="#7E86FF"/>
</svg>
