<svg width="382" height="384" viewBox="0 0 382 384" fill="none" xmlns="http://www.w3.org/2000/svg">
<path fill-rule="evenodd" clip-rule="evenodd" d="M229.751 141.94C243.616 155.273 380.699 160.371 381.604 170.265C382.509 180.16 250.924 174.931 249.162 194.079C247.401 213.226 329.038 323.458 321.874 330.338C314.71 337.219 236.581 231.191 220.514 241.747C204.447 252.304 169.202 384.796 159.353 383.483C149.504 382.17 183.639 255.027 165.362 249.039C147.085 243.051 21.4802 298.031 16.3632 289.512C11.2462 280.993 131.948 228.495 125.25 210.465C118.553 192.436 -2.82512 128.482 0.643868 119.174C4.11288 109.867 120.461 171.538 130.382 155.071C140.302 138.604 114.739 3.7949 124.185 0.720512C133.631 -2.35388 157.83 127.09 176.894 124.581C195.958 122.073 285.441 18.1104 293.737 23.5822C302.033 29.054 215.887 128.608 229.751 141.94Z" fill="#CDF545"/>
</svg>
