<svg width="301" height="301" viewBox="0 0 301 301" fill="none" xmlns="http://www.w3.org/2000/svg">
<path fill-rule="evenodd" clip-rule="evenodd" d="M100.201 70.4066C115.449 60.8194 118.448 3.63916 125.457 2.44889C132.467 1.25863 154.166 54.2295 171.728 58.2324C189.289 62.2353 231.8 23.9007 237.602 28.011C243.403 32.1214 221.326 84.9528 230.913 100.201C240.5 115.449 297.68 118.448 298.871 125.457C300.061 132.467 247.09 154.166 243.087 171.728C239.084 189.289 277.419 231.8 273.309 237.602C269.198 243.403 216.367 221.326 201.119 230.913C185.871 240.5 182.872 297.68 175.862 298.871C168.853 300.061 147.153 247.09 129.592 243.087C112.031 239.084 69.5191 277.419 63.7178 273.309C57.9165 269.198 79.9937 216.367 70.4066 201.119C60.8194 185.87 3.63916 182.872 2.4489 175.862C1.25863 168.853 54.2295 147.153 58.2324 129.592C62.2353 112.031 23.9007 69.5191 28.011 63.7178C32.1214 57.9165 84.9528 79.9937 100.201 70.4066Z" fill="#7E86FF" stroke="#F4F4F4" stroke-width="3"/>
</svg>
