<svg width="282" height="282" viewBox="0 0 282 282" fill="none" xmlns="http://www.w3.org/2000/svg">
<path fill-rule="evenodd" clip-rule="evenodd" d="M141 46.202C159.012 46.202 191.986 -0.608978 198.554 2.11438C205.121 4.83774 195.296 61.2315 208.032 73.9677C220.768 86.7038 277.162 76.8788 279.886 83.4464C282.609 90.014 235.798 122.988 235.798 141C235.798 159.012 282.609 191.986 279.886 198.554C277.162 205.121 220.768 195.296 208.032 208.032C195.296 220.768 205.121 277.162 198.554 279.886C191.986 282.609 159.012 235.798 141 235.798C122.988 235.798 90.014 282.609 83.4464 279.886C76.8788 277.162 86.7037 220.768 73.9676 208.032C61.2315 195.296 4.83768 205.121 2.11432 198.554C-0.609039 191.986 46.2019 159.012 46.2019 141C46.2019 122.988 -0.609039 90.014 2.11432 83.4464C4.83768 76.8788 61.2315 86.7038 73.9676 73.9677C86.7037 61.2315 76.8788 4.83774 83.4464 2.11438C90.014 -0.608978 122.988 46.202 141 46.202Z" fill="#7E86FF" stroke="#F4F4F4" stroke-width="3"/>
</svg>
