<svg width="385" height="386" viewBox="0 0 385 386" fill="none" xmlns="http://www.w3.org/2000/svg">
<path fill-rule="evenodd" clip-rule="evenodd" d="M230.751 142.94C244.616 156.273 381.699 161.371 382.604 171.265C383.509 181.16 251.924 175.931 250.162 195.079C248.401 214.226 330.038 324.458 322.874 331.338C315.711 338.219 237.581 232.191 221.514 242.747C205.447 253.304 170.202 385.796 160.353 384.483C150.504 383.17 184.639 256.027 166.362 250.039C148.085 244.051 22.4803 299.031 17.3633 290.512C12.2462 281.993 132.948 229.495 126.25 211.465C119.553 193.436 -1.82506 129.482 1.64393 120.174C5.11294 110.867 121.461 172.538 131.382 156.071C141.303 139.604 115.739 4.7949 125.185 1.72051C134.631 -1.35388 158.83 128.09 177.894 125.581C196.958 123.073 286.441 19.1104 294.737 24.5822C303.033 30.054 216.887 129.608 230.751 142.94Z" fill="#FED12E" stroke="#F4F4F4" stroke-width="3"/>
</svg>
