<svg width="293" height="301" viewBox="0 0 293 301" fill="none" xmlns="http://www.w3.org/2000/svg">
<path fill-rule="evenodd" clip-rule="evenodd" d="M99.5413 70.4066C114.789 60.8194 117.788 3.63916 124.798 2.44889C131.807 1.25863 153.507 54.2295 171.068 58.2324C188.629 62.2353 231.141 23.9007 236.942 28.011C242.743 32.1214 220.666 84.9528 230.253 100.201C239.841 115.449 297.021 118.448 298.211 125.457C299.401 132.467 246.43 154.166 242.427 171.728C238.425 189.289 276.759 231.8 272.649 237.602C268.539 243.403 215.707 221.326 200.459 230.913C185.211 240.5 182.212 297.68 175.203 298.871C168.193 300.061 146.494 247.09 128.932 243.087C111.371 239.084 68.8594 277.419 63.0581 273.309C57.2568 269.198 79.3341 216.367 69.7469 201.119C60.1597 185.87 2.97949 182.872 1.78923 175.862C0.598963 168.853 53.5699 147.153 57.5727 129.592C61.5756 112.031 23.241 69.5191 27.3513 63.7178C31.4617 57.9165 84.2932 79.9937 99.5413 70.4066Z" fill="#7E86FF" stroke="#F4F4F4" stroke-width="3"/>
</svg>
