<svg width="251" height="245" viewBox="0 0 251 245" fill="none" xmlns="http://www.w3.org/2000/svg">
<path fill-rule="evenodd" clip-rule="evenodd" d="M220.968 110.059C220.968 110.059 251.085 122.843 248.89 138.229C246.695 153.615 214.068 158.328 214.068 158.328C214.068 158.328 233.443 184.108 223.641 196.412C213.839 208.715 183.31 196.936 183.31 196.936C183.31 196.936 186.782 228.818 172.005 234.735C157.228 240.651 136.956 215.511 136.956 215.511C136.956 215.511 123.618 244.924 107.831 242.893C92.0442 240.862 87.4281 209.125 87.4281 209.125C87.4281 209.125 60.8169 228.169 48.2483 218.71C35.6796 209.25 47.9881 179.442 47.9881 179.442C47.9881 179.442 15.219 183.042 9.2444 168.695C3.26984 154.348 29.2298 134.435 29.2298 134.435C29.2298 134.435 -0.886844 121.651 1.30769 106.265C3.50222 90.8795 36.1299 86.166 36.1299 86.166C36.1299 86.166 16.7544 60.3859 26.5563 48.0825C36.3583 35.7792 66.888 47.5585 66.888 47.5585C66.888 47.5585 63.4161 15.6759 78.1929 9.75955C92.9697 3.84319 113.242 28.9832 113.242 28.9832C113.242 28.9832 126.579 -0.429604 142.366 1.60114C158.153 3.63189 162.77 35.369 162.77 35.369C162.77 35.369 189.381 16.3254 201.949 25.7847C214.518 35.2441 202.21 65.0521 202.21 65.0521C202.21 65.0521 234.979 61.4518 240.953 75.7992C246.928 90.1466 220.968 110.059 220.968 110.059Z" fill="#FEB3D2" stroke="#F4F4F4" stroke-width="3"/>
</svg>
