<svg width="73" height="71" viewBox="0 0 73 71" fill="none" xmlns="http://www.w3.org/2000/svg">
<path d="M40.3742 23.3117L40.8454 25.3407L42.6203 24.2506L57.4339 15.1524L48.1224 29.4941L46.9427 31.3111L49.0586 31.776L66.0096 35.5L49.0586 39.224L46.9427 39.6889L48.1224 41.5059L57.4339 55.8476L42.6203 46.7494L40.8454 45.6593L40.3742 47.6883L36.5 64.3695L32.6258 47.6883L32.1546 45.6593L30.3797 46.7494L15.5661 55.8476L24.8776 41.5059L26.0573 39.6889L23.9414 39.224L6.99045 35.5L23.9414 31.776L26.0573 31.3111L24.8776 29.4941L15.5661 15.1524L30.3797 24.2506L32.1546 25.3407L32.6258 23.3117L36.5 6.63053L40.3742 23.3117Z" fill="#FEB3D2" stroke="#F4F4F4" stroke-width="3"/>
</svg>
