<svg width="278" height="278" viewBox="0 0 278 278" fill="none" xmlns="http://www.w3.org/2000/svg">
<path fill-rule="evenodd" clip-rule="evenodd" d="M139 44.202C157.012 44.202 189.986 -2.60898 196.554 0.114383C203.121 2.83774 193.296 59.2315 206.032 71.9677C218.768 84.7038 275.162 74.8788 277.886 81.4464C280.609 88.014 233.798 120.988 233.798 139C233.798 157.012 280.609 189.986 277.886 196.554C275.162 203.121 218.768 193.296 206.032 206.032C193.296 218.768 203.121 275.162 196.554 277.886C189.986 280.609 157.012 233.798 139 233.798C120.988 233.798 88.014 280.609 81.4464 277.886C74.8788 275.162 84.7037 218.768 71.9676 206.032C59.2315 193.296 2.83768 203.121 0.114322 196.554C-2.60904 189.986 44.2019 157.012 44.2019 139C44.2019 120.988 -2.60904 88.014 0.114322 81.4464C2.83768 74.8788 59.2315 84.7038 71.9676 71.9677C84.7037 59.2315 74.8788 2.83774 81.4464 0.114383C88.014 -2.60898 120.988 44.202 139 44.202Z" fill="#7E86FF"/>
</svg>
