<svg width="136" height="134" viewBox="0 0 136 134" fill="none" xmlns="http://www.w3.org/2000/svg">
<path fill-rule="evenodd" clip-rule="evenodd" d="M119.04 60.5015C119.04 60.5015 135.085 67.3889 133.926 75.6543C132.767 83.9198 115.396 86.432 115.396 86.432C115.396 86.432 125.729 100.296 120.518 106.9C115.306 113.505 99.0424 107.157 99.0424 107.157C99.0424 107.157 100.911 124.289 93.0463 127.459C85.1818 130.628 74.3716 117.108 74.3716 117.108C74.3716 117.108 67.2882 132.903 58.8808 131.802C50.4733 130.701 47.9955 113.646 47.9955 113.646C47.9955 113.646 33.8376 123.862 27.1392 118.771C20.4409 113.681 26.9762 97.6729 26.9762 97.6729C26.9762 97.6729 9.52975 99.587 6.33951 91.8744C3.14927 84.1619 16.9599 73.4791 16.9599 73.4791C16.9599 73.4791 0.915571 66.5917 2.07451 58.3263C3.23346 50.0608 20.6039 47.5486 20.6039 47.5486C20.6039 47.5486 10.2709 33.6849 15.4825 27.0805C20.6941 20.4761 36.9577 26.8241 36.9577 26.8241C36.9577 26.8241 35.0892 9.69148 42.9538 6.52185C50.8183 3.35222 61.6285 16.8725 61.6285 16.8725C61.6285 16.8725 68.7119 1.07741 77.1194 2.17836C85.5269 3.27931 88.0046 20.3345 88.0046 20.3345C88.0046 20.3345 102.163 10.1189 108.861 15.2092C115.559 20.2996 109.024 36.3077 109.024 36.3077C109.024 36.3077 126.47 34.3936 129.661 42.1062C132.851 49.8187 119.04 60.5015 119.04 60.5015Z" fill="#36B7FF" stroke="#F4F4F4" stroke-width="3"/>
</svg>
